<?xml version="1.0" encoding="UTF-8" standalone="no"?>
<svg
   xmlns:dc="http://purl.org/dc/elements/1.1/"
   xmlns:cc="http://creativecommons.org/ns#"
   xmlns:rdf="http://www.w3.org/1999/02/22-rdf-syntax-ns#"
   xmlns:svg="http://www.w3.org/2000/svg"
   xmlns="http://www.w3.org/2000/svg"
   id="svg8"
   version="1.1"
   viewBox="0 0 61.482163 13.692188"
   height="51.75"
   width="232.37354">
  <defs
     id="defs2" />
  <metadata
     id="metadata5">
    <rdf:RDF>
      <cc:Work
         rdf:about="">
        <dc:format>image/svg+xml</dc:format>
        <dc:type
           rdf:resource="http://purl.org/dc/dcmitype/StillImage" />
        <dc:title></dc:title>
      </cc:Work>
    </rdf:RDF>
  </metadata>
  <g
     transform="translate(-18.639966,-43.703935)"
     id="layer1">
    <g
       id="flowRoot10-6"
       style="font-style:normal;font-variant:normal;font-weight:normal;font-stretch:normal;font-size:40px;line-height:1.25;font-family:'Parkway Lush';-inkscape-font-specification:'Parkway Lush';letter-spacing:-2.59599876px;word-spacing:0px;fill:#95004f;fill-opacity:1;stroke:none"
       transform="matrix(0.45965766,0,0,0.45965766,-13.743037,-51.510678)"
       aria-label="Pixie &amp; Dixie">
      <path
         id="path4699"
         style=""
         d="m 94.061172,213.93977 q -0.2,1.04 -0.64,2 -0.4,0.92 -1.08,1.84 -0.8,1.16 -1.76,2.16 -0.96,0.96 -2,1.88 -0.48,0.4 -1,0.84 -0.48,0.4 -1.16,0.44 -0.04,0.48 -0.36,0.6 -0.28,0.12 -0.56,0.24 -0.72,0.4 -1.48,0.72 -0.72,0.32 -1.48,0.64 -0.36,0.12 -0.72,0.4 -0.2,0.12 -0.4,0.24 -0.16,0.12 -0.36,0.12 -0.4,0.04 -0.8,0.24 -0.36,0.2 -0.76,0.2 -0.36,0.48 -0.44,0.96 -0.08,0.48 -0.28,0.92 0.08,-0.32 0.12,-0.64 0.08,-0.32 0.16,-0.64 -0.4,0.96 -0.6,1.92 -0.2,0.96 -0.32,1.92 -0.08,0.6 -0.16,1.2 -0.04,0.6 -0.08,1.2 -0.08,0.64 0.12,1.24 0.12,0.44 -0.32,0.88 -0.28,-0.04 -0.56,-0.04 -0.24,-0.04 -0.56,-0.04 -0.12,0.12 -0.24,0.28 -0.08,0.12 -0.28,0.32 -0.08,-0.08 -0.16,-0.16 -0.08,-0.08 -0.2,-0.12 -0.68,-0.28 -0.8,-0.88 -0.08,-0.64 -0.12,-1.28 -0.08,-1 0,-1.96 0.12,-1 0.32,-2.04 0.08,-0.48 0.16,-0.96 0.08,-0.48 0.16,-0.96 0.04,-0.08 0.04,-0.2 0,-0.12 0.04,-0.32 -0.32,0 -0.64,0 -0.28,-0.04 -0.6,-0.08 -0.08,0 -0.16,0 -0.08,0 -0.12,-0.04 -0.24,-0.08 -0.44,-0.24 -0.16,-0.2 -0.48,-0.12 -0.04,-0.24 -0.28,-0.32 -0.2,-0.12 -0.12,-0.44 0,-0.12 -0.04,-0.2 0,-0.12 -0.04,-0.24 0.08,0 0.12,0 0.08,-0.04 0.16,-0.04 0.32,-0.28 0.52,-0.52 0.24,-0.28 0.52,-0.52 0.08,-0.08 0.2,-0.08 0.12,0 0.16,0.16 0,0.08 0,0.16 0.04,0.04 0.04,0.16 0.16,-0.08 0.28,-0.16 0.16,-0.08 0.24,-0.16 0.28,0.04 0.48,0.08 0.2,0.04 0.44,0.04 0.4,-0.08 0.52,-0.52 0.08,-0.32 0.12,-0.64 0.08,-0.32 0.16,-0.64 0.12,-0.4 -0.36,-0.4 0.04,0.16 0.16,0.4 -0.12,0.12 -0.36,0.44 -0.16,-0.08 -0.16,-0.08 -0.12,-0.36 -0.52,-0.4 -0.28,-0.08 -0.44,-0.4 -0.24,-0.36 -0.44,-0.76 -0.2,-0.4 -0.48,-0.84 0.08,-0.08 0.16,-0.12 0.12,-0.04 0.2,-0.12 -0.04,0 -0.04,-0.04 0,-0.04 -0.04,-0.04 0,0 0,-0.04 -0.2,0.16 -0.36,0.16 -0.12,0 -0.24,-0.04 -0.08,-0.08 -0.16,-0.16 -0.08,-0.12 -0.16,-0.2 -0.04,-0.04 -0.04,-0.08 0,-0.12 0.08,-0.2 0.08,-0.08 0.16,-0.12 0.12,-0.08 0.16,-0.16 0.04,-0.08 -0.04,-0.2 -0.68,0.44 -1.16,-0.04 -0.72,-0.68 -1.36,-1.48 -0.44,-0.56 -0.56,-1.28 -0.2,-0.64 0.04,-1.28 0.24,-0.68 0.72,-1.36 0.68,-0.92 1.52,-1.56 0.84,-0.64 1.8,-1.2 0.96,-0.56 1.92,-0.96 1,-0.44 2.04,-0.76 2.04,-0.68 4.04,-1 2.04,-0.36 4,-0.24 1.64,0.08 3.04,0.48 1.44,0.4 2.6,1.32 0.76,0.56 1.24,1.36 0.56,0.76 0.44,1.68 -0.08,0.92 -0.48,1.84 -1.24,2.64 -3.16,4.8 -0.12,0.12 -0.24,0.28 -0.08,0.12 -0.16,0.24 0.16,-0.08 0.28,-0.16 0.16,-0.08 0.24,-0.2 0.92,-1.04 1.68,-2.12 0.76,-1.08 1.28,-2.32 0.16,-0.36 0.32,-0.72 0.16,-0.36 0.36,-0.72 z m -1.84,2.12 q -0.4,0.56 -0.76,1.12 -0.36,0.52 -0.76,1.08 0.52,-0.48 0.92,-1 0.4,-0.56 0.6,-1.2 z m -20.44,-0.96 q 0.8,-0.56 1.08,-1.4 -0.52,0.24 -0.72,0.6 -0.2,0.32 -0.36,0.8 z m 2.8,-0.36 q -0.08,0.12 -0.12,0.24 -0.04,0.08 -0.12,0.2 h 0.16 q 0.04,-0.08 0.08,-0.2 0.04,-0.12 0.08,-0.2 -0.04,0 -0.04,0 0,-0.04 -0.04,-0.04 z m -1.12,4.24 q 0.04,0 0.2,-0.08 -0.12,-0.12 -0.08,-0.12 -0.16,0 -0.16,0.08 0,0.12 0.04,0.12 z m 1.36,-3.36 q 0.2,-0.24 0.24,-0.32 0.04,-0.08 0.12,-0.4 -0.16,0.2 -0.28,0.36 -0.12,0.16 -0.2,0.28 0.04,0.04 0.04,0.04 0.04,0 0.08,0.04 z m -0.4,3.8 q 0.12,0.04 0.2,0.08 0.08,0 0.24,0.04 -0.08,-0.28 -0.16,-0.28 -0.08,0 -0.28,0.16 z m 0.96,-0.84 q 0.08,-0.08 0.16,-0.08 0.08,-0.04 0.16,-0.08 -0.08,-0.08 -0.04,-0.08 -0.12,0 -0.28,0.08 z m 5.96,-3.36 q 0.12,-0.24 0.2,-0.44 0.08,-0.24 0.2,-0.48 h -0.12 q -0.08,0.2 -0.2,0.44 -0.12,0.24 -0.2,0.44 0.12,0 0.12,0.04 z m 0.24,9.96 q 0.08,-0.2 0.12,-0.32 0.04,-0.16 -0.24,-0.2 0.04,0.08 0.04,0.2 0,0.12 0.08,0.32 z m 1.32,-0.96 q 0,-0.04 0,-0.04 0.04,-0.04 0.04,-0.08 h -0.28 q 0,0.04 -0.04,0.08 0.08,0.04 0.28,0.04 z m -1.56,-2.32 q 0.68,-0.52 1.4,-1 0.72,-0.52 1.4,-1.08 1.08,-0.92 2.08,-1.92 1.04,-1.04 1.84,-2.2 0.48,-0.68 0.8,-1.36 0.36,-0.68 0.52,-1.4 0.08,-0.76 -0.12,-1.16 -0.2,-0.44 -0.88,-0.68 -0.56,-0.2 -1.16,-0.2 -0.56,-0.04 -1.2,0.04 -1.04,0.08 -2.16,0.32 -1.08,0.24 -2.16,0.56 -2.24,0.64 -4.36,1.8 -0.64,0.32 -1.2,0.76 -0.52,0.44 -0.96,1.08 -0.44,0.56 -0.2,1.04 0.24,0.36 0,0.8 0.12,0.04 0.24,0.04 0.16,-0.04 0.16,0 0.08,0.2 0.24,0.32 0.2,0.12 0.32,0.28 0.16,0.12 0.2,0.32 0.08,0.2 -0.08,0.52 0.16,0 0.28,-0.04 0.16,-0.04 0.24,0.04 0.32,0.2 0.44,0.48 0.12,0.32 0.52,0.28 0.08,-0.4 0.16,-0.56 0.36,-1.04 0.72,-2.04 0.4,-1 0.84,-2.04 0.2,-0.48 0.48,-0.92 0.32,-0.44 0.64,-0.88 0.08,-0.2 0.24,-0.36 0.2,-0.16 0.48,-0.16 0.12,0.36 -0.08,0.68 -0.16,0.28 -0.4,0.56 -0.4,0.48 -0.36,1.08 0.08,-0.16 0.16,-0.24 0.08,-0.12 0.16,-0.2 0.2,-0.32 0.44,-0.68 0.28,-0.36 0.48,-0.68 0.16,-0.2 0.28,-0.36 0.16,-0.16 0.48,-0.08 0.04,0.12 0,0.24 0,0.12 0.04,0.28 0.2,-0.2 0.44,-0.36 0.16,0 0.24,0.12 0.08,0.08 0.12,0.2 0.04,0.12 0.12,0.2 0.08,0.08 0.32,0 -0.88,2.28 -1.8,4.56 -0.88,2.24 -1.52,4.6 0.32,-0.2 0.56,-0.32 0.28,-0.12 0.56,-0.28 z m 1.2,-6.96 q 0.04,-0.08 0.04,-0.2 0.04,-0.12 0.08,-0.2 h -0.08 q -0.04,0.16 -0.12,0.4 z m 3.56,4.48 q 0.52,-0.28 1.04,-0.76 0.52,-0.48 1,-1.04 0.48,-0.56 0.84,-1.12 0.36,-0.6 0.56,-1.16 -0.72,1.08 -1.6,2.08 -0.84,1 -1.84,2 z m 3.92,-2.4 q 0.04,0.04 0.04,0.04 0.04,0 0.08,0.04 0.2,-0.28 0.36,-0.52 0.2,-0.28 0.4,-0.56 -0.04,-0.04 -0.08,-0.04 0,0 -0.04,-0.04 -0.2,0.28 -0.4,0.56 -0.16,0.24 -0.36,0.52 z m -0.4,3.6 q 0.08,-0.16 0.24,-0.4 -0.24,0.12 -0.24,0.4 z m -16.8,4.2 q -0.24,0.24 -0.24,0.6 l -0.28,0.28 q 0.04,-0.24 -0.04,-0.4 -0.08,-0.2 0.2,-0.4 0.16,-0.16 0.28,-0.28 0.12,-0.16 0.28,-0.32 h 0.12 q -0.08,0.16 -0.16,0.32 -0.04,0.12 -0.16,0.2 z m 5.4,6.56 q -0.04,-0.08 -0.04,-0.2 0,-0.12 -0.04,-0.24 0.08,-0.24 0.12,-0.48 0.08,-0.24 0.16,-0.48 h 0.08 q -0.16,0.72 -0.24,1.4 z m 3.44,-12.64 q 0.2,-0.52 0.4,-1.04 0.24,-0.52 0.44,-1.04 0.04,-0.08 0.08,-0.12 0.08,-0.08 0.16,-0.16 -0.28,0.68 -0.56,1.36 -0.24,0.64 -0.48,1.32 -0.12,0.12 -0.12,0.28 h -0.12 q 0.04,-0.16 0.08,-0.28 0.08,-0.16 0.12,-0.32 z m 1.08,-2.36 q 0.08,-0.28 0.12,-0.52 0.04,-0.24 0.12,-0.48 h 0.12 q -0.08,0.12 -0.12,0.24 0,0.12 -0.08,0.2 -0.04,0.16 -0.08,0.28 -0.04,0.12 -0.08,0.24 z m -2.12,5.4 q 0.08,-0.2 0.08,-0.32 0.04,-0.16 0.12,-0.36 h 0.08 q -0.08,0.2 -0.12,0.36 0,0.12 -0.08,0.32 z m 2.8,-7.48 q 0.04,0 0.04,0.04 0,0.08 -0.08,0.2 -0.04,0.12 -0.08,0.24 h -0.12 z m -2.24,5.84 q 0.08,-0.16 0.08,-0.24 h 0.08 q 0,0.08 -0.08,0.24 z" />
      <path
         id="path4701"
         style=""
         d="m 93.238298,228.65977 q 0.2,-0.16 0.28,-0.28 0.12,-0.12 0.2,-0.24 0.04,0.04 0.08,0.04 -0.12,0.16 -0.2,0.32 -0.08,0.16 -0.2,0.32 -0.04,0.08 -0.12,0.16 -0.04,0.04 -0.08,0.12 0,0.28 -0.2,0.4 -0.16,0.12 -0.32,0.24 -0.2,0.16 -0.36,0.16 -0.16,0 -0.36,0 -0.16,0 -0.32,0 -0.16,0 -0.32,0.04 -0.32,0.08 -0.52,0.04 -0.16,-0.08 -0.36,-0.2 -0.4,-0.32 -0.6,-0.72 -0.2,-0.44 -0.28,-0.96 -0.32,-2.76 0.84,-5.64 0.32,-0.84 0.68,-1.68 0.4,-0.84 0.8,-1.68 0.28,-0.52 0.64,-1 0.36,-0.52 0.68,-1.04 0.16,-0.24 0.36,-0.44 0.24,-0.24 0.56,-0.32 0.16,0.16 0.08,0.32 -0.04,0.16 -0.04,0.36 -0.08,0.16 -0.16,0.16 -0.32,0.08 -0.4,0.28 -0.08,0.16 -0.16,0.36 0.68,-0.48 1.04,-1 0.08,-0.16 0.2,-0.24 0.16,-0.12 0.36,-0.04 -0.08,0.2 -0.12,0.48 0.12,-0.08 0.24,-0.16 0.12,-0.08 0.24,-0.16 0.2,0.08 0.2,0.28 0,0.16 0.08,0.36 h 0.2 v 0.12 q -0.2,0.44 -0.44,0.88 -0.2,0.44 -0.4,0.88 -0.4,0.8 -0.8,1.6 -0.36,0.76 -0.68,1.56 -0.36,0.84 -0.6,1.72 -0.2,0.84 -0.4,1.72 0.08,-0.24 0.12,-0.28 h 0.08 q -0.08,0.2 -0.16,0.4 -0.04,0.16 -0.12,0.36 -0.12,0.32 -0.2,0.64 -0.08,0.28 0.08,0.6 0.04,0.16 -0.04,0.68 0.16,-0.16 0.28,-0.28 0.12,-0.12 0.28,-0.24 0.08,0 0.12,0.04 l -0.24,0.6 q 0.04,0 0.08,0.04 0.08,-0.16 0.2,-0.28 0.12,-0.12 0.24,-0.24 0.2,0.08 0.16,0.2 0,0.08 -0.2,0.64 z m 0.12,-10.56 q 0.04,-0.08 0.04,-0.12 0,-0.04 0.04,-0.12 -0.08,0.08 -0.12,0.12 0,0.04 -0.08,0.12 z m 1.16,-0.32 q 0.08,-0.16 0.16,-0.2 -0.04,-0.04 -0.08,-0.04 -0.04,0.04 -0.12,0.2 0.04,0 0,0.04 0,0 0.04,0 z m 4.44,-7.68 q 0.12,0.08 -0.04,0.4 -0.12,0.24 -0.28,0.48 -0.12,0.24 -0.28,0.52 -0.2,0.44 -0.44,0.84 -0.24,0.36 -0.48,0.8 -0.12,0.32 -0.2,0.6 -0.08,0.28 -0.04,0.56 0,0.44 -0.36,0.64 -0.08,0 -0.08,0.12 l -1.08,-0.12 q -0.04,0.04 -0.08,0.04 -0.36,0.32 -0.52,0.36 -0.12,0 -0.28,-0.32 -0.08,-0.08 -0.08,-0.12 0,-0.04 -0.04,-0.08 -0.44,-0.12 -0.44,-0.44 0,-0.36 0,-0.68 0,-0.28 0.04,-0.52 0.08,-0.24 0.16,-0.48 0.2,-0.56 0.4,-1.12 0.24,-0.6 0.48,-1.16 0.24,-0.72 0.84,-1.12 0.12,-0.08 0.2,-0.08 0.12,-0.04 0.2,-0.12 0,0.24 0,0.4 0.04,0.16 -0.04,0.36 -0.08,0.2 -0.2,0.4 -0.08,0.16 -0.2,0.36 0.36,-0.04 0.44,-0.24 0.12,-0.2 0.24,-0.36 0.16,-0.2 0.28,-0.36 0.12,-0.2 0.24,-0.4 0.4,0 0.4,0.36 -0.08,0.36 -0.24,0.72 -0.16,0.32 -0.36,0.64 -0.12,0.2 -0.28,0.4 -0.12,0.2 -0.12,0.4 0.4,-0.56 0.68,-1.12 0.32,-0.6 0.76,-1.16 0.64,0.28 0.36,0.88 -0.04,0.08 -0.04,0.12 0,0.04 -0.08,0.12 0.12,-0.12 0.24,-0.24 0.16,-0.16 0.32,-0.28 z m -3.16,4.36 q 0,0 0.04,0 0.04,0 0.08,-0.04 -0.04,-0.04 -0.04,-0.08 0.04,-0.04 0,-0.08 l -0.16,0.08 q 0,0.12 0.08,0.12 z m 2.6,-3.8 q -0.2,0.32 -0.4,0.64 -0.16,0.28 -0.28,0.6 -0.2,0.32 -0.4,0.64 -0.16,0.32 -0.2,0.64 0.08,-0.08 0.12,-0.12 0.04,-0.04 0.12,-0.12 0.2,-0.44 0.44,-0.88 0.24,-0.48 0.48,-0.92 z m -2.84,7.8 q 0,0.12 -0.16,0.48 -0.12,0.36 -0.32,0.8 -0.2,0.4 -0.44,0.8 -0.2,0.4 -0.36,0.6 0.24,-0.68 0.56,-1.32 0.32,-0.64 0.72,-1.36 z m -2.76,6.48 q 0.08,-0.2 0.08,-0.32 0.04,-0.16 0.12,-0.36 h 0.12 q 0,0.2 -0.12,0.36 -0.08,0.12 -0.2,0.32 z m 5.84,-13.32 q 0.08,-0.2 0.12,-0.36 0.04,-0.16 0.28,-0.2 -0.08,0.12 -0.2,0.28 -0.08,0.12 -0.2,0.28 z m -2.88,6.56 -0.04,-0.04 q 0.04,-0.08 0.08,-0.12 0.04,-0.04 0.04,-0.12 h 0.08 q -0.04,0.08 -0.08,0.16 0,0.04 -0.04,0.12 z m 3.44,-7.56 h 0.08 q -0.08,0.12 -0.12,0.24 -0.04,0.08 -0.12,0.2 0.08,-0.32 0.16,-0.44 z m -5.84,12.88 q 0,0.04 -0.04,0.08 0,0.04 0,0.08 h -0.08 q 0,-0.04 0,-0.08 0.04,-0.04 0.04,-0.08 z" />
      <path
         id="path4703"
         style=""
         d="m 95.482924,229.45977 q -0.16,0.32 -0.44,0.52 -0.24,0.16 -0.6,0.36 0.12,-0.36 0.12,-0.48 -0.44,0 -0.52,-0.08 -0.04,-0.08 -0.08,-0.52 -0.12,0.16 -0.2,0.28 -0.08,0.08 -0.16,0.16 -0.16,0.24 -0.4,0.24 -0.32,0 -0.16,-0.36 0.04,-0.12 0.08,-0.28 0.04,-0.16 0.12,-0.36 -0.32,0.28 -0.44,0.44 -0.2,-0.12 -0.2,-0.28 0.04,-0.16 0.12,-0.32 0.12,-0.48 0.48,-0.76 0.64,-0.76 1.28,-1.48 0.68,-0.76 1.36,-1.48 0.56,-0.64 1.12,-1.24 0.6,-0.6 1.16,-1.24 -0.04,-0.08 -0.12,-0.32 -0.32,-0.92 -0.6,-1.76 -0.24,-0.88 -0.56,-1.76 -0.12,-0.32 -0.28,-0.6 -0.16,-0.28 -0.32,-0.6 -0.4,-0.52 0.12,-1 0.68,-0.64 1.2,-0.24 0.16,0.08 0.24,0.08 0.64,0.04 1,0.36 0.4,0.32 0.72,0.72 0.4,0.44 0.599996,1 0.2,0.56 0.32,1.2 0,0.24 0.08,0.32 -0.04,0.04 0.04,0.08 0.12,-0.08 0.24,-0.2 0.16,-0.12 0.28,-0.2 0.92,-0.84 1.84,-1.64 0.96,-0.84 1.96,-1.64 0.16,-0.16 0.32,-0.28 0.2,-0.16 0.4,-0.28 0.16,-0.08 0.28,-0.12 0.16,-0.04 0.36,-0.12 0.04,0.04 0.04,0.08 -0.08,0.16 -0.12,0.32 -0.04,0.12 -0.16,0.24 -0.36,0.4 -0.96,0.88 -1.04,0.8 -2.04,1.72 -1,0.88 -2,1.8 -0.16,0.2 -0.2,0.28 0,0.04 0,0.28 0.24,-0.16 0.32,-0.28 1.08,-0.96 2.16,-1.88 1.08,-0.96 2.12,-1.92 0.32,-0.28 0.6,-0.56 0.28,-0.28 0.68,-0.48 0.2,-0.08 0.32,-0.12 0.12,-0.08 0.24,0.12 -0.04,0.12 -0.12,0.28 -0.04,0.12 -0.12,0.32 0.2,-0.12 0.32,-0.2 0.12,-0.08 0.32,-0.16 0.12,0.2 0.16,0.44 0.08,0.2 -0.12,0.52 0.08,-0.08 0.2,-0.12 0.16,-0.08 0.36,-0.24 -0.12,0.36 -0.24,0.44 -0.4,0.4 -0.8,0.8 -0.36,0.4 -0.8,0.8 -1.16,1.04 -2.28,2.04 -1.08,0.96 -2.2,1.96 -0.12,0.12 -0.24,0.24 -0.12,0.12 -0.24,0.2 0.08,0.56 0.24,1.04 0.16,0.44 0.36,0.88 0.4,1 0.8,1.96 0.44,0.96 1.04,1.88 0.08,0.08 0.08,0.16 0,0.04 0.04,0.12 0.08,0.16 0,0.28 -0.08,0.08 -0.16,0.2 -0.2,0.2 -0.48,0.12 -0.08,-0.08 -0.16,-0.12 -0.08,-0.04 -0.16,-0.08 -0.32,-0.08 -0.44,0 -0.48,0.2 -0.68,-0.16 -0.36,-0.52 -0.76,-1.04 -0.36,-0.52 -0.68,-1.08 -0.28,-0.44 -0.519996,-0.88 -0.2,-0.48 -0.48,-0.96 -0.32,0.16 -0.44,0.24 0.08,-0.12 0.2,-0.24 0.16,-0.12 0.08,-0.36 -1.04,1.04 -2.04,2 -1,0.96 -1.96,2 -0.08,0.08 -0.08,0.16 0,0.04 -0.08,0.16 0.16,-0.12 0.32,-0.2 z m 2.48,-3.28 q -0.04,0.04 -0.08,0.08 -0.04,0 -0.08,0.04 -0.68,0.68 -1.36,1.36 -0.64,0.68 -1.32,1.36 -0.08,0.08 -0.08,0.16 0,0.08 -0.08,0.2 0.12,-0.12 0.2,-0.16 0.56,-0.56 1.08,-1.12 0.56,-0.6 1.12,-1.16 0.2,-0.2 0.32,-0.36 0.12,-0.16 0.32,-0.36 0.32,-0.24 0.6,-0.48 0.28,-0.28 0.48,-0.6 0,-0.04 -0.04,-0.04 0,0 0,-0.04 -0.28,0.32 -0.56,0.6 -0.28,0.24 -0.52,0.52 z m -4.36,2.4 q 0.2,-0.16 0.28,-0.28 0.12,-0.12 0.24,-0.2 0.8,-0.88 1.6,-1.72 0.84,-0.88 1.64,-1.72 l 1,-1 q 0.24,-0.24 0,-0.36 -0.08,0.08 -0.24,0.2 -0.12,0.08 -0.2,0.2 -0.48,0.48 -0.96,1 -0.44,0.48 -0.92,0.96 -0.52,0.56 -1.04,1.08 -0.52,0.52 -1.04,1.08 -0.12,0.16 -0.28,0.32 -0.12,0.16 -0.08,0.44 z m 1.76,-0.72 q -0.88,0.48 -0.92,1.04 0.24,-0.28 0.48,-0.52 0.24,-0.28 0.44,-0.52 z m 7.679996,-6.4 q 0,-0.04 -0.04,-0.04 0,0 0,-0.04 -0.12,0.12 -0.24,0.24 -0.12,0.08 -0.2,0.16 0.08,-0.08 0.2,-0.16 0.16,-0.08 0.28,-0.16 z m 0.28,-0.36 q 0.24,-0.16 0.28,-0.2 0.08,-0.08 0.2,-0.28 z m 3.48,-3.12 q 0,0.04 0,0.04 0.04,0 0.04,0.04 0.08,-0.08 0.12,-0.12 0.08,-0.08 0.16,-0.16 0,-0.04 -0.04,-0.04 -0.12,0.08 -0.28,0.24 z m -1.84,1.72 q 0,0 -0.04,-0.08 -0.04,0.04 -0.08,0.08 -0.04,0 -0.08,0.08 0.12,0 0.04,0.08 0.08,-0.04 0.08,-0.08 0.04,-0.04 0.08,-0.08 z m -3.16,2.72 q 0,0 0.08,0.08 0.12,-0.12 0.2,-0.16 -0.04,-0.04 -0.04,-0.12 -0.12,0.08 -0.24,0.2 z" />
      <path
         id="path4705"
         style=""
         d="m 108.74943,228.65977 q 0.2,-0.16 0.28,-0.28 0.12,-0.12 0.2,-0.24 0.04,0.04 0.08,0.04 -0.12,0.16 -0.2,0.32 -0.08,0.16 -0.2,0.32 -0.04,0.08 -0.12,0.16 -0.04,0.04 -0.08,0.12 0,0.28 -0.2,0.4 -0.16,0.12 -0.32,0.24 -0.2,0.16 -0.36,0.16 -0.16,0 -0.36,0 -0.16,0 -0.32,0 -0.16,0 -0.32,0.04 -0.32,0.08 -0.52,0.04 -0.16,-0.08 -0.36,-0.2 -0.4,-0.32 -0.6,-0.72 -0.2,-0.44 -0.28,-0.96 -0.32,-2.76 0.84,-5.64 0.32,-0.84 0.68,-1.68 0.4,-0.84 0.8,-1.68 0.28,-0.52 0.64,-1 0.36,-0.52 0.68,-1.04 0.16,-0.24 0.36,-0.44 0.24,-0.24 0.56,-0.32 0.16,0.16 0.08,0.32 -0.04,0.16 -0.04,0.36 -0.08,0.16 -0.16,0.16 -0.32,0.08 -0.4,0.28 -0.08,0.16 -0.16,0.36 0.68,-0.48 1.04,-1 0.08,-0.16 0.2,-0.24 0.16,-0.12 0.36,-0.04 -0.08,0.2 -0.12,0.48 0.12,-0.08 0.24,-0.16 0.12,-0.08 0.24,-0.16 0.2,0.08 0.2,0.28 0,0.16 0.08,0.36 h 0.2 v 0.12 q -0.2,0.44 -0.44,0.88 -0.2,0.44 -0.4,0.88 -0.4,0.8 -0.8,1.6 -0.36,0.76 -0.68,1.56 -0.36,0.84 -0.6,1.72 -0.2,0.84 -0.4,1.72 0.08,-0.24 0.12,-0.28 h 0.08 q -0.08,0.2 -0.16,0.4 -0.04,0.16 -0.12,0.36 -0.12,0.32 -0.2,0.64 -0.08,0.28 0.08,0.6 0.04,0.16 -0.04,0.68 0.16,-0.16 0.28,-0.28 0.12,-0.12 0.28,-0.24 0.08,0 0.12,0.04 l -0.24,0.6 q 0.04,0 0.08,0.04 0.08,-0.16 0.2,-0.28 0.12,-0.12 0.24,-0.24 0.2,0.08 0.16,0.2 0,0.08 -0.2,0.64 z m 0.12,-10.56 q 0.04,-0.08 0.04,-0.12 0,-0.04 0.04,-0.12 -0.08,0.08 -0.12,0.12 0,0.04 -0.08,0.12 z m 1.16,-0.32 q 0.08,-0.16 0.16,-0.2 -0.04,-0.04 -0.08,-0.04 -0.04,0.04 -0.12,0.2 0.04,0 0,0.04 0,0 0.04,0 z m 4.44,-7.68 q 0.12,0.08 -0.04,0.4 -0.12,0.24 -0.28,0.48 -0.12,0.24 -0.28,0.52 -0.2,0.44 -0.44,0.84 -0.24,0.36 -0.48,0.8 -0.12,0.32 -0.2,0.6 -0.08,0.28 -0.04,0.56 0,0.44 -0.36,0.64 -0.08,0 -0.08,0.12 l -1.08,-0.12 q -0.04,0.04 -0.08,0.04 -0.36,0.32 -0.52,0.36 -0.12,0 -0.28,-0.32 -0.08,-0.08 -0.08,-0.12 0,-0.04 -0.04,-0.08 -0.44,-0.12 -0.44,-0.44 0,-0.36 0,-0.68 0,-0.28 0.04,-0.52 0.08,-0.24 0.16,-0.48 0.2,-0.56 0.4,-1.12 0.24,-0.6 0.48,-1.16 0.24,-0.72 0.84,-1.12 0.12,-0.08 0.2,-0.08 0.12,-0.04 0.2,-0.12 0,0.24 0,0.4 0.04,0.16 -0.04,0.36 -0.08,0.2 -0.2,0.4 -0.08,0.16 -0.2,0.36 0.36,-0.04 0.44,-0.24 0.12,-0.2 0.24,-0.36 0.16,-0.2 0.28,-0.36 0.12,-0.2 0.24,-0.4 0.4,0 0.4,0.36 -0.08,0.36 -0.24,0.72 -0.16,0.32 -0.36,0.64 -0.12,0.2 -0.28,0.4 -0.12,0.2 -0.12,0.4 0.4,-0.56 0.68,-1.12 0.32,-0.6 0.76,-1.16 0.64,0.28 0.36,0.88 -0.04,0.08 -0.04,0.12 0,0.04 -0.08,0.12 0.12,-0.12 0.24,-0.24 0.16,-0.16 0.32,-0.28 z m -3.16,4.36 q 0,0 0.04,0 0.04,0 0.08,-0.04 -0.04,-0.04 -0.04,-0.08 0.04,-0.04 0,-0.08 l -0.16,0.08 q 0,0.12 0.08,0.12 z m 2.6,-3.8 q -0.2,0.32 -0.4,0.64 -0.16,0.28 -0.28,0.6 -0.2,0.32 -0.4,0.64 -0.16,0.32 -0.2,0.64 0.08,-0.08 0.12,-0.12 0.04,-0.04 0.12,-0.12 0.2,-0.44 0.44,-0.88 0.24,-0.48 0.48,-0.92 z m -2.84,7.8 q 0,0.12 -0.16,0.48 -0.12,0.36 -0.32,0.8 -0.2,0.4 -0.44,0.8 -0.2,0.4 -0.36,0.6 0.24,-0.68 0.56,-1.32 0.32,-0.64 0.72,-1.36 z m -2.76,6.48 q 0.08,-0.2 0.08,-0.32 0.04,-0.16 0.12,-0.36 h 0.12 q 0,0.2 -0.12,0.36 -0.08,0.12 -0.2,0.32 z m 5.84,-13.32 q 0.08,-0.2 0.12,-0.36 0.04,-0.16 0.28,-0.2 -0.08,0.12 -0.2,0.28 -0.08,0.12 -0.2,0.28 z m -2.88,6.56 -0.04,-0.04 q 0.04,-0.08 0.08,-0.12 0.04,-0.04 0.04,-0.12 h 0.08 q -0.04,0.08 -0.08,0.16 0,0.04 -0.04,0.12 z m 3.44,-7.56 h 0.08 q -0.08,0.12 -0.12,0.24 -0.04,0.08 -0.12,0.2 0.08,-0.32 0.16,-0.44 z m -5.84,12.88 q 0,0.04 -0.04,0.08 0,0.04 0,0.08 h -0.08 q 0,-0.04 0,-0.08 0.04,-0.04 0.04,-0.08 z" />
      <path
         id="path4707"
         style=""
         d="m 120.79405,224.29977 q -0.04,0.04 0.04,0.04 -0.08,0.2 -0.16,0.36 -0.04,0.16 -0.12,0.32 -0.12,0.24 -0.24,0.48 -0.08,0.24 -0.2,0.44 -0.2,0.32 -0.4,0.52 -0.84,0.84 -1.76,1.6 -0.88,0.76 -1.92,1.36 -0.24,0.16 -0.48,0.28 -0.24,0.12 -0.48,0.16 -0.68,0.12 -1.36,0.28 -0.68,0.12 -1.32,0.08 -1.2,-0.08 -1.96,-0.68 -0.72,-0.64 -1.12,-1.68 -0.24,-0.64 -0.28,-1.32 -0.04,-0.72 0.04,-1.44 0.28,-1.68 0.92,-3.28 0.64,-1.6 1.72,-3.12 0.64,-0.88 1.4,-1.56 0.8,-0.68 1.8,-1.12 1.2,-0.52 2.2,-0.28 1.48,0.24 2.72,1.16 0.08,0.08 0.2,0.2 0.16,0.08 0.24,0.2 0.72,0.72 0.04,1.88 -0.44,0.76 -0.96,1.52 -0.52,0.72 -1.16,1.4 -0.24,0.24 -0.44,0.52 -0.2,0.24 -0.44,0.52 0,0.36 -0.32,0.36 -0.2,0.2 -0.4,0.44 -0.16,0.2 -0.36,0.4 -0.56,0.56 -1.16,1.08 -0.56,0.52 -1.16,1.08 -0.12,0.08 -0.28,0.2 -0.12,0.08 -0.28,0.16 -0.12,0.04 -0.44,0.04 -0.08,0.24 -0.08,0.44 0,0.68 0.36,0.88 0.2,0.12 0.4,0 0.24,-0.12 0.44,-0.24 2.04,-1.04 3.84,-2.84 0.2,-0.2 0.32,-0.4 0.16,-0.2 0.32,-0.4 0.16,-0.16 0.28,-0.28 0.12,-0.12 0.28,-0.2 -0.08,0.36 -0.28,0.72 -0.16,0.32 -0.24,0.68 0.2,-0.2 0.32,-0.36 0.12,-0.2 0.32,-0.4 0.2,-0.16 0.28,-0.36 0.08,-0.2 0.36,-0.32 0.12,0.2 -0.04,0.4 -0.16,0.2 -0.08,0.44 0.16,-0.2 0.28,-0.36 0.16,-0.2 0.28,-0.36 0.24,0.16 0.24,0.28 0.04,0.12 -0.16,0.68 0.08,-0.16 0.2,-0.28 0.12,-0.16 0.24,-0.32 z m -2.76,-2.52 q 0.12,-0.16 0.28,-0.24 0.16,-0.12 0.16,-0.32 -0.36,0.28 -0.44,0.56 z m 1.52,-2.04 q -0.24,0.36 -0.52,0.72 -0.24,0.36 -0.48,0.72 0.44,-0.28 0.64,-0.64 0.24,-0.4 0.48,-0.76 -0.04,-0.04 -0.12,-0.04 z m -0.84,-0.16 q -0.2,0.24 -0.36,0.48 -0.12,0.24 -0.28,0.48 0.08,0 0.12,0.04 0.16,-0.24 0.28,-0.48 0.16,-0.24 0.36,-0.48 -0.04,0 -0.08,0 0,-0.04 -0.04,-0.04 z m -7,0.64 q 1.16,-1.4 2.2,-2.56 -0.08,-0.08 -0.08,-0.08 -0.64,0.32 -1.12,0.92 -0.44,0.6 -1,1.72 z m 1.12,0.28 q 0.32,-0.44 0.56,-0.84 0.28,-0.4 0.56,-0.84 -0.08,0 -0.08,-0.04 -0.72,0.72 -1.16,1.68 0.04,0.04 0.12,0.04 z m 2.28,-1.72 q -0.52,0.44 -0.84,1 -0.32,0.52 -0.52,1.08 0.32,-0.52 0.68,-1.04 0.36,-0.52 0.68,-1.04 z m 0.68,0 q -0.4,0.24 -0.88,0.84 -0.44,0.56 -0.84,1.28 -0.36,0.68 -0.68,1.44 -0.28,0.72 -0.32,1.28 0.44,-1.28 1.08,-2.48 0.64,-1.2 1.64,-2.36 z m -2.56,5.04 q -0.08,0.08 -0.08,0.2 0.04,0.12 0,0.32 0.28,-0.32 0.48,-0.56 0.2,-0.24 0.4,-0.48 0.8,-0.88 1.52,-1.76 0.76,-0.92 1.36,-1.92 0.36,-0.52 0.64,-1.28 0.12,-0.68 -0.56,-0.32 -0.16,0.08 -0.24,0.16 -0.92,0.64 -1.56,1.64 -0.68,0.96 -1.16,1.96 -0.48,1 -0.8,2.04 z m -0.28,1.68 q 0.08,-0.08 0.12,-0.12 0.08,-0.08 0.12,-0.16 0.64,-0.68 1.24,-1.32 0.64,-0.68 1.2,-1.36 0.48,-0.56 0.96,-1.16 0.48,-0.64 0.92,-1.24 0.12,-0.16 0.2,-0.32 0.12,-0.16 0.04,-0.36 -0.24,0.08 -0.32,0.24 -0.08,0.16 -0.2,0.32 -0.32,0.48 -0.64,0.96 -0.32,0.44 -0.68,0.88 -0.68,0.8 -1.36,1.56 -0.68,0.76 -1.36,1.56 -0.08,0.12 -0.2,0.24 -0.08,0.08 -0.04,0.28 z m 6.56,-4.48 q -0.04,0 -0.08,0 0,-0.04 -0.04,-0.04 0.28,-0.44 0.56,-0.88 0.28,-0.48 0.6,-0.96 0.04,0.04 0.08,0.04 -0.28,0.48 -0.56,0.96 -0.28,0.44 -0.56,0.88 z" />
      <path
         id="path4709"
         style=""
         d="m 135.80455,221.41977 q 0.24,0.92 0.72,1.68 0.52,0.72 1,1.52 0.32,-0.2 0.6,-0.36 0.32,-0.16 0.64,-0.32 1.6,-0.92 3.16,-1.8 1.6,-0.88 3.2,-1.76 0.28,-0.16 0.6,-0.16 -0.08,0.12 -0.2,0.28 -0.08,0.12 -0.24,0.28 0.32,0.08 0.52,-0.12 0.24,-0.2 0.56,-0.16 -0.04,0.12 -0.04,0.48 0.16,-0.08 0.32,-0.16 0.16,-0.08 0.4,-0.16 -0.04,0.2 -0.04,0.4 0,0.16 -0.04,0.36 0.08,0 0.12,0 0.08,-0.04 0.16,-0.04 0,0.12 -0.04,0.12 -0.32,0.32 -0.64,0.6 -0.28,0.24 -0.6,0.56 -0.24,0.28 -0.6,0.48 -0.36,0.16 -0.68,0.36 -0.76,0.44 -1.48,0.92 -0.72,0.44 -1.48,0.88 -0.68,0.4 -1.32,0.8 -0.6,0.36 -1.28,0.8 0.04,0.08 0.04,0.2 0.04,0.12 0.12,0.2 0.32,0.48 0.6,1 0.32,0.48 0.68,0.92 0.28,0.32 0.56,0.64 0.28,0.28 0.56,0.6 0.56,0.52 -0.04,1.16 -0.44,-0.08 -0.88,-0.08 -0.44,-0.04 -0.88,-0.12 -0.4,-0.04 -0.72,-0.32 -0.68,-0.56 -1.2,-1.2 -0.52,-0.64 -0.96,-1.44 -0.04,-0.04 -0.08,-0.08 -0.04,-0.04 -0.12,-0.12 -0.2,0.16 -0.44,0.28 -0.24,0.12 -0.48,0.28 -1.04,0.68 -2.04,1.32 -0.96,0.6 -1.96,1.28 -0.84,0.56 -1.72,0.96 -0.84,0.4 -1.76,0.8 -0.56,0.2 -1.04,0.16 -0.44,-0.04 -0.88,-0.12 -0.2,-0.04 -0.44,-0.04 -0.2,-0.04 -0.44,-0.04 -0.88,0 -1.2,-0.6 0,-0.12 -0.08,-0.2 -0.4,-0.36 -0.36,-0.84 0.04,-0.48 0.28,-1.04 0.28,-0.48 0.56,-0.96 0.28,-0.48 0.6,-0.92 0.8,-1.16 1.76,-2.24 0.96,-1.08 1.96,-2.12 0.68,-0.68 1.36,-1.32 0.72,-0.68 1.4,-1.36 0.12,-0.12 0.36,-0.44 -0.08,-0.32 -0.2,-0.68 -0.12,-0.36 -0.2,-0.72 -0.32,-1.24 -0.08,-2.84 0.32,-1.28 1.08,-2.28 0.76,-1.04 1.92,-1.88 0.76,-0.56 1.56,-0.88 0.84,-0.36 1.68,-0.44 0.6,-0.08 1.08,0.04 0.68,0.16 1.2,0.44 0.52,0.24 0.96,0.72 0.52,0.64 0.52,1.24 0.04,0.56 -0.56,1.44 -0.48,0.68 -1,1.32 -0.52,0.64 -1.08,1.28 -0.8,0.92 -1.64,1.8 -0.84,0.84 -1.68,1.76 z m -7.04,5.52 q 0.28,-0.2 0.32,-0.28 0.04,-0.08 0.12,-0.36 -0.4,0.32 -0.44,0.68 -0.28,0.08 -0.4,0.24 -0.12,0.16 -0.2,0.36 -0.44,0.4 -0.76,0.88 -0.32,0.48 -0.6,1 0.36,-0.48 0.68,-0.92 0.36,-0.48 0.72,-0.92 0.16,-0.2 0.28,-0.32 0.12,-0.16 0.28,-0.36 z m 3.56,-2.56 q 0.52,-0.4 0.8,-0.84 -0.28,0.12 -0.52,0.36 -0.12,0.12 -0.36,0.44 -0.12,0.08 -0.24,0.2 -0.12,0.12 -0.12,0.32 0.12,-0.12 0.2,-0.24 0.12,-0.12 0.24,-0.24 z m -2.76,2.8 q -0.64,0.56 -1.16,1.28 -0.48,0.68 -0.68,1.12 0.52,-0.6 0.96,-1.16 0.48,-0.6 0.92,-1.16 0.44,-0.48 0.92,-0.92 0.48,-0.48 0.8,-1.04 -0.48,0.44 -0.96,0.88 -0.44,0.44 -0.8,1 z m 7,-6.96 q 0.68,-0.68 1.36,-1.4 0.68,-0.72 1.36,-1.44 0.36,-0.36 0.44,-0.48 0.08,-0.16 0.2,-0.52 -0.2,0.32 -0.4,0.52 -0.16,0.2 -0.28,0.4 l -1.88,1.88 q -0.2,0.24 -0.44,0.52 -0.24,0.24 -0.44,0.48 -0.6,0.24 -0.72,0.92 0.2,-0.2 0.4,-0.4 0.2,-0.24 0.4,-0.48 z m -8.56,9.56 q 1,-0.32 1.84,-0.8 0.84,-0.52 1.72,-1 0.92,-0.48 1.84,-0.96 0.92,-0.52 1.84,-1.08 -0.44,-0.64 -0.84,-1.2 -0.4,-0.6 -0.84,-1.16 -0.68,0.56 -1.56,1.48 -0.88,0.88 -1.72,1.8 -0.8,0.92 -1.44,1.72 -0.64,0.8 -0.84,1.2 z m 10.72,-16 q -0.04,0.04 -0.32,0.16 -0.28,0.08 -0.6,0.24 -0.4,0.16 -0.92,0.4 -0.48,0.28 -0.84,0.76 -0.36,0.48 -0.6,1.04 -0.24,0.52 -0.32,1.04 -0.08,0.48 0,0.8 0.44,-0.32 1.04,-0.92 0.6,-0.6 1.12,-1.24 0.56,-0.68 0.96,-1.28 0.4,-0.64 0.48,-1 z m -6.2,8.04 q -0.2,0 -0.32,0.12 -0.12,0.12 -0.24,0.24 l -1.36,1.36 q -1.08,1.08 -2.16,2.2 -1.04,1.08 -1.96,2.24 -0.16,0.2 -0.28,0.44 -0.12,0.2 -0.28,0.4 0.04,0.04 0.04,0.04 0.04,0 0.08,0.04 0.24,-0.24 0.36,-0.4 0.44,-0.48 0.88,-1 0.44,-0.52 0.88,-1 1,-1.04 2,-2.04 1,-1.04 2,-2.08 0.16,-0.12 0.28,-0.24 0.12,-0.12 0.08,-0.32 z m 2.56,-2.48 q 0.4,-0.2 0.96,-0.72 0.56,-0.56 1.08,-1.16 0.56,-0.64 0.96,-1.2 0.44,-0.6 0.52,-0.92 -0.08,0.08 -0.16,0.12 -0.04,0 -0.12,0.08 -0.72,0.8 -1.44,1.6 -0.72,0.8 -1.44,1.6 -0.08,0.12 -0.16,0.28 -0.08,0.12 -0.2,0.32 z m 0.36,-6.12 -0.12,-0.12 q -0.64,0.44 -1.2,0.92 -0.52,0.44 -0.76,1.24 0.56,-0.52 1.04,-1 0.48,-0.52 1.04,-1.04 z m 4.12,2.4 q -0.76,0.84 -1.52,1.68 -0.72,0.8 -1.44,1.64 0.28,-0.16 0.72,-0.56 0.44,-0.44 0.88,-0.92 0.44,-0.52 0.8,-1 0.4,-0.52 0.56,-0.84 z m -3.12,-1.16 q -0.48,0.28 -0.72,0.56 -0.2,0.24 -0.28,0.64 0.24,-0.28 0.44,-0.52 0.24,-0.24 0.44,-0.48 0.04,-0.04 0.12,-0.2 z m -2.16,0.92 q 0.04,0.04 0.08,0.08 0.04,0 0.08,0.04 0.16,-0.2 0.32,-0.4 0.16,-0.24 0.32,-0.44 -0.04,0 -0.08,0 0,-0.04 -0.04,-0.04 -0.16,0.2 -0.32,0.4 -0.16,0.16 -0.36,0.36 z m 1.88,4.16 q -0.08,-0.08 -0.12,-0.08 -0.24,0.24 -0.32,0.36 0,0.04 0.04,0.08 0.08,-0.08 0.2,-0.16 0.12,-0.12 0.2,-0.2 z" />
      <path
         id="path4711"
         style=""
         d="m 169.48756,226.69977 q -0.4,0.36 -0.76,0.72 -0.36,0.32 -0.72,0.64 -0.24,0.24 0,0.32 -0.32,0.32 -0.68,0.64 -0.32,0.32 -0.64,0.6 -1.04,0.8 -2.12,1.56 -1.08,0.76 -2.24,1.4 -1.28,0.72 -2.56,1.28 -1.28,0.56 -2.64,0.92 -0.48,0.16 -0.8,0.4 -0.28,0.24 -0.4,0.76 -0.08,0.2 -0.24,0.36 -0.16,0.2 -0.28,0.4 -0.08,-0.2 -0.24,-0.24 -0.12,0 -0.32,0 -0.16,0.04 -0.32,0.04 -0.12,0 -0.2,-0.16 l -0.36,0.36 q -0.48,0.44 -0.72,0.04 -0.04,-0.12 -0.08,-0.24 0,-0.08 -0.24,0.04 -0.08,0.04 -0.16,-0.12 -0.08,-0.12 -0.12,-0.2 -0.12,-0.44 -0.56,-0.44 -0.08,0 -0.16,-0.04 -0.04,-0.04 -0.12,-0.04 -0.16,-0.04 -0.32,-0.08 -0.16,-0.08 -0.36,0.24 0,0.08 -0.12,0.08 -0.68,0.08 -1.32,0.12 -0.6,0.04 -1.24,0.08 -0.2,0 -0.4,-0.04 -0.24,-0.04 -0.44,-0.12 -0.08,-0.08 -0.16,-0.2 -0.12,-0.12 0.2,-0.32 -0.12,-0.08 -0.16,-0.08 -0.04,-0.04 -0.12,-0.04 -0.76,-0.2 -0.2,-0.96 0.28,-0.32 0.52,-0.48 0.24,-0.2 0.64,-0.32 0.08,0.12 0.08,0.4 1.08,-0.2 2.16,-0.44 1.08,-0.28 2.2,-0.72 0.24,-0.08 0.32,-0.24 0.08,-0.2 0.16,-0.4 0.24,-1.08 0.48,-2.12 0.28,-1.08 0.6,-2.16 0.72,-2.64 1.48,-5.24 0.76,-2.6 1.56,-5.24 0.16,-0.48 0.32,-0.96 0.2,-0.52 0.4,-1.04 l 0.28,-0.84 q -2.2,0.92 -4.2,2.16 -1.96,1.24 -3.88,2.68 0.08,-0.2 0.08,-0.32 0.04,-0.12 0.12,-0.32 -0.44,0.44 -0.6,0.48 -0.12,0.04 -0.52,-0.12 -0.44,0.36 -0.52,0.36 -0.12,0 -0.36,-0.36 -0.12,-0.12 -0.08,-0.12 -0.52,-0.08 -0.4,-0.4 0.08,-0.32 0.2,-0.64 0.24,-0.56 0.6,-1.04 0.36,-0.48 0.8,-0.92 1.12,-1.16 2.36,-2.04 1.28,-0.92 2.68,-1.72 1.96,-1.08 3.92,-1.88 2,-0.84 4.08,-1.32 1.6,-0.4 3.16,-0.64 1.6,-0.24 3.12,-0.04 2.16,0.28 3.92,1.08 1.8,0.8 3.04,2.44 0.48,0.68 0.68,1.48 0.2,0.76 0,1.72 -0.4,2.56 -1.96,5 -1.12,1.76 -2.4,3.44 -1.24,1.64 -2.72,3.16 z m -20.84,-8.16 q 0.52,-0.36 0.8,-0.8 0.32,-0.48 0.6,-0.92 -0.44,0.32 -0.84,0.72 -0.36,0.4 -0.56,1 z m 21.12,5.32 q 0,0.04 0.08,0.12 0.12,-0.16 0.28,-0.28 -0.24,0.12 -0.36,0.16 z m 4.44,-3.88 q -1,1.28 -1.96,2.52 -0.92,1.24 -1.84,2.52 1.12,-1.16 2.12,-2.4 1,-1.24 1.68,-2.64 z m -1.52,-0.12 q -0.04,0.08 -0.08,0.12 -0.04,0.04 -0.08,0.12 -0.52,0.76 -1.04,1.48 -0.48,0.72 -1,1.48 -0.08,0.16 -0.16,0.28 -0.08,0.12 -0.16,0.28 0.4,-0.44 0.8,-0.88 0.4,-0.48 0.76,-0.92 0.4,-0.52 0.64,-0.84 0.24,-0.36 0.36,-0.56 0.12,-0.2 0.16,-0.32 0.04,-0.16 0.04,-0.32 -0.08,0.04 -0.12,0.04 -0.04,0 -0.12,0.04 z m -14.04,10.44 q 4.4,-2.36 8.04,-6.08 1.32,-1.4 2.52,-2.84 1.2,-1.48 2.04,-3.16 0.44,-0.88 0.76,-1.76 0.32,-0.88 0.4,-1.8 0.32,-2.48 -1.84,-3.12 -0.24,-0.08 -0.52,-0.12 -0.28,-0.04 -0.56,-0.08 -0.92,-0.08 -1.92,0.12 -0.96,0.16 -1.92,0.4 -0.48,0.12 -0.76,0.2 -0.28,0.08 -0.44,0.24 -0.16,0.16 -0.28,0.44 -0.12,0.24 -0.32,0.72 -0.24,0.68 -0.52,1.32 -0.24,0.6 -0.52,1.24 0.08,-0.88 0.48,-1.72 0.4,-0.84 0.6,-1.68 -2,4.52 -3.72,9.04 -1.68,4.48 -2.96,9.08 h 0.16 q 0.12,-0.28 0.2,-0.56 0.12,-0.28 0.2,-0.6 h 0.04 q -0.12,0.64 -0.28,1.2 0.28,-0.04 0.4,-0.12 0.4,-0.16 0.72,-0.36 z m 10.2,-6.68 q 0.64,-0.8 1.24,-1.6 0.6,-0.84 1.28,-1.64 0.32,-0.44 0.48,-0.76 0.16,-0.36 -0.04,-0.8 -0.8,1.12 -1.56,2.24 -0.76,1.12 -1.64,2.16 -0.88,1.08 -1.88,2.08 -0.96,0.96 -1.92,2 0.08,-0.04 0.16,-0.08 0.08,-0.04 0.16,-0.12 2.08,-1.56 3.72,-3.48 z m 0.96,3.16 q -0.08,0.08 -0.12,0.16 l -0.04,-0.04 q 0.04,-0.04 0.08,-0.04 0.04,-0.04 0.08,-0.08 z m 1.52,-1.76 q -0.08,0.32 -0.2,0.44 -0.32,0.36 -0.68,0.68 -0.32,0.32 -0.64,0.64 l 0.72,-0.84 q 0.2,-0.24 0.4,-0.44 0.2,-0.24 0.4,-0.48 z m 0.04,-0.04 -0.04,0.04 v -0.04 z m -3.32,3.44 -0.04,-0.04 h 0.04 z m 1.64,-1.48 h -0.04 v -0.04 z m -0.04,0 q -0.32,0.44 -0.72,0.8 -0.36,0.36 -0.88,0.64 0.28,-0.36 0.76,-0.8 0.48,-0.44 0.84,-0.64 z m 3.76,-4.32 v -0.04 z m 0,0 q -0.4,0.8 -1,1.24 0.2,-0.32 0.4,-0.64 0.2,-0.32 0.6,-0.6 z m -1,1.24 q -0.04,0.04 -0.08,0.04 z m -0.08,0.12 q -0.2,0.32 -0.4,0.6 -0.16,0.24 -0.56,0.4 0.24,-0.28 0.48,-0.52 0.24,-0.24 0.48,-0.48 z m 0,0 v -0.08 z m -0.96,1 h -0.04 z m 2.04,-2.36 v -0.04 z m 0.08,-0.28 q 0.12,-0.12 0.28,-0.16 -0.08,0.08 -0.2,0.2 -0.08,0.12 -0.16,0.2 0.04,-0.08 0.04,-0.12 0,-0.04 0.04,-0.12 z m -13.68,0.92 q 0.4,-1.04 0.76,-2.04 0.4,-1 0.84,-2.04 0.08,0 0.16,0.04 -0.44,1.04 -0.84,2.04 -0.4,1 -0.8,2.04 -0.04,-0.04 -0.12,-0.04 z m -0.96,2.72 q 0.2,-0.52 0.36,-1.04 0.2,-0.52 0.36,-1.04 h 0.16 q -0.2,0.48 -0.36,1 -0.16,0.48 -0.32,0.96 -0.04,0.04 -0.2,0.12 z m -0.16,0.92 q -0.08,0.48 -0.32,1 0.12,-0.48 0.24,-0.96 0.12,-0.48 0.24,-0.92 -0.04,0.2 -0.08,0.44 0,0.24 -0.08,0.44 z m 0.16,-0.88 v -0.04 z m 2.8,-7.36 q 0.08,-0.24 0.12,-0.4 0.04,-0.2 0.08,-0.36 0.2,0.24 -0.2,0.76 z m 0.44,-1.32 q 0.12,-0.2 0.2,-0.4 h 0.12 q -0.08,0.12 -0.12,0.24 0,0.08 -0.08,0.16 z m -4.08,11.44 q 0.04,-0.04 0.04,-0.04 0.04,0 0.08,-0.04 v 0.12 q -0.04,0 -0.04,0.04 0,0 -0.04,0 -0.12,0 -0.04,-0.08 z" />
      <path
         id="path4713"
         style=""
         d="m 176.61093,228.65977 q 0.2,-0.16 0.28,-0.28 0.12,-0.12 0.2,-0.24 0.04,0.04 0.08,0.04 -0.12,0.16 -0.2,0.32 -0.08,0.16 -0.2,0.32 -0.04,0.08 -0.12,0.16 -0.04,0.04 -0.08,0.12 0,0.28 -0.2,0.4 -0.16,0.12 -0.32,0.24 -0.2,0.16 -0.36,0.16 -0.16,0 -0.36,0 -0.16,0 -0.32,0 -0.16,0 -0.32,0.04 -0.32,0.08 -0.52,0.04 -0.16,-0.08 -0.36,-0.2 -0.4,-0.32 -0.6,-0.72 -0.2,-0.44 -0.28,-0.96 -0.32,-2.76 0.84,-5.64 0.32,-0.84 0.68,-1.68 0.4,-0.84 0.8,-1.68 0.28,-0.52 0.64,-1 0.36,-0.52 0.68,-1.04 0.16,-0.24 0.36,-0.44 0.24,-0.24 0.56,-0.32 0.16,0.16 0.08,0.32 -0.04,0.16 -0.04,0.36 -0.08,0.16 -0.16,0.16 -0.32,0.08 -0.4,0.28 -0.08,0.16 -0.16,0.36 0.68,-0.48 1.04,-1 0.08,-0.16 0.2,-0.24 0.16,-0.12 0.36,-0.04 -0.08,0.2 -0.12,0.48 0.12,-0.08 0.24,-0.16 0.12,-0.08 0.24,-0.16 0.2,0.08 0.2,0.28 0,0.16 0.08,0.36 h 0.2 v 0.12 q -0.2,0.44 -0.44,0.88 -0.2,0.44 -0.4,0.88 -0.4,0.8 -0.8,1.6 -0.36,0.76 -0.68,1.56 -0.36,0.84 -0.6,1.72 -0.2,0.84 -0.4,1.72 0.08,-0.24 0.12,-0.28 h 0.08 q -0.08,0.2 -0.16,0.4 -0.04,0.16 -0.12,0.36 -0.12,0.32 -0.2,0.64 -0.08,0.28 0.08,0.6 0.04,0.16 -0.04,0.68 0.16,-0.16 0.28,-0.28 0.12,-0.12 0.28,-0.24 0.08,0 0.12,0.04 l -0.24,0.6 q 0.04,0 0.08,0.04 0.08,-0.16 0.2,-0.28 0.12,-0.12 0.24,-0.24 0.2,0.08 0.16,0.2 0,0.08 -0.2,0.64 z m 0.12,-10.56 q 0.04,-0.08 0.04,-0.12 0,-0.04 0.04,-0.12 -0.08,0.08 -0.12,0.12 0,0.04 -0.08,0.12 z m 1.16,-0.32 q 0.08,-0.16 0.16,-0.2 -0.04,-0.04 -0.08,-0.04 -0.04,0.04 -0.12,0.2 0.04,0 0,0.04 0,0 0.04,0 z m 4.44,-7.68 q 0.12,0.08 -0.04,0.4 -0.12,0.24 -0.28,0.48 -0.12,0.24 -0.28,0.52 -0.2,0.44 -0.44,0.84 -0.24,0.36 -0.48,0.8 -0.12,0.32 -0.2,0.6 -0.08,0.28 -0.04,0.56 0,0.44 -0.36,0.64 -0.08,0 -0.08,0.12 l -1.08,-0.12 q -0.04,0.04 -0.08,0.04 -0.36,0.32 -0.52,0.36 -0.12,0 -0.28,-0.32 -0.08,-0.08 -0.08,-0.12 0,-0.04 -0.04,-0.08 -0.44,-0.12 -0.44,-0.44 0,-0.36 0,-0.68 0,-0.28 0.04,-0.52 0.08,-0.24 0.16,-0.48 0.2,-0.56 0.4,-1.12 0.24,-0.6 0.48,-1.16 0.24,-0.72 0.84,-1.12 0.12,-0.08 0.2,-0.08 0.12,-0.04 0.2,-0.12 0,0.24 0,0.4 0.04,0.16 -0.04,0.36 -0.08,0.2 -0.2,0.4 -0.08,0.16 -0.2,0.36 0.36,-0.04 0.44,-0.24 0.12,-0.2 0.24,-0.36 0.16,-0.2 0.28,-0.36 0.12,-0.2 0.24,-0.4 0.4,0 0.4,0.36 -0.08,0.36 -0.24,0.72 -0.16,0.32 -0.36,0.64 -0.12,0.2 -0.28,0.4 -0.12,0.2 -0.12,0.4 0.4,-0.56 0.68,-1.12 0.32,-0.6 0.76,-1.16 0.64,0.28 0.36,0.88 -0.04,0.08 -0.04,0.12 0,0.04 -0.08,0.12 0.12,-0.12 0.24,-0.24 0.16,-0.16 0.32,-0.28 z m -3.16,4.36 q 0,0 0.04,0 0.04,0 0.08,-0.04 -0.04,-0.04 -0.04,-0.08 0.04,-0.04 0,-0.08 l -0.16,0.08 q 0,0.12 0.08,0.12 z m 2.6,-3.8 q -0.2,0.32 -0.4,0.64 -0.16,0.28 -0.28,0.6 -0.2,0.32 -0.4,0.64 -0.16,0.32 -0.2,0.64 0.08,-0.08 0.12,-0.12 0.04,-0.04 0.12,-0.12 0.2,-0.44 0.44,-0.88 0.24,-0.48 0.48,-0.92 z m -2.84,7.8 q 0,0.12 -0.16,0.48 -0.12,0.36 -0.32,0.8 -0.2,0.4 -0.44,0.8 -0.2,0.4 -0.36,0.6 0.24,-0.68 0.56,-1.32 0.32,-0.64 0.72,-1.36 z m -2.76,6.48 q 0.08,-0.2 0.08,-0.32 0.04,-0.16 0.12,-0.36 h 0.12 q 0,0.2 -0.12,0.36 -0.08,0.12 -0.2,0.32 z m 5.84,-13.32 q 0.08,-0.2 0.12,-0.36 0.04,-0.16 0.28,-0.2 -0.08,0.12 -0.2,0.28 -0.08,0.12 -0.2,0.28 z m -2.88,6.56 -0.04,-0.04 q 0.04,-0.08 0.08,-0.12 0.04,-0.04 0.04,-0.12 h 0.08 q -0.04,0.08 -0.08,0.16 0,0.04 -0.04,0.12 z m 3.44,-7.56 h 0.08 q -0.08,0.12 -0.12,0.24 -0.04,0.08 -0.12,0.2 0.08,-0.32 0.16,-0.44 z m -5.84,12.88 q 0,0.04 -0.04,0.08 0,0.04 0,0.08 h -0.08 q 0,-0.04 0,-0.08 0.04,-0.04 0.04,-0.08 z" />
      <path
         id="path4715"
         style=""
         d="m 178.85556,229.45977 q -0.16,0.32 -0.44,0.52 -0.24,0.16 -0.6,0.36 0.12,-0.36 0.12,-0.48 -0.44,0 -0.52,-0.08 -0.04,-0.08 -0.08,-0.52 -0.12,0.16 -0.2,0.28 -0.08,0.08 -0.16,0.16 -0.16,0.24 -0.4,0.24 -0.32,0 -0.16,-0.36 0.04,-0.12 0.08,-0.28 0.04,-0.16 0.12,-0.36 -0.32,0.28 -0.44,0.44 -0.2,-0.12 -0.2,-0.28 0.04,-0.16 0.12,-0.32 0.12,-0.48 0.48,-0.76 0.64,-0.76 1.28,-1.48 0.68,-0.76 1.36,-1.48 0.56,-0.64 1.12,-1.24 0.6,-0.6 1.16,-1.24 -0.04,-0.08 -0.12,-0.32 -0.32,-0.92 -0.6,-1.76 -0.24,-0.88 -0.56,-1.76 -0.12,-0.32 -0.28,-0.6 -0.16,-0.28 -0.32,-0.6 -0.4,-0.52 0.12,-1 0.68,-0.64 1.2,-0.24 0.16,0.08 0.24,0.08 0.64,0.04 1,0.36 0.4,0.32 0.72,0.72 0.4,0.44 0.6,1 0.2,0.56 0.32,1.2 0,0.24 0.08,0.32 -0.04,0.04 0.04,0.08 0.12,-0.08 0.24,-0.2 0.16,-0.12 0.28,-0.2 0.92,-0.84 1.84,-1.64 0.96,-0.84 1.96,-1.64 0.16,-0.16 0.32,-0.28 0.2,-0.16 0.4,-0.28 0.16,-0.08 0.28,-0.12 0.16,-0.04 0.36,-0.12 0.04,0.04 0.04,0.08 -0.08,0.16 -0.12,0.32 -0.04,0.12 -0.16,0.24 -0.36,0.4 -0.96,0.88 -1.04,0.8 -2.04,1.72 -1,0.88 -2,1.8 -0.16,0.2 -0.2,0.28 0,0.04 0,0.28 0.24,-0.16 0.32,-0.28 1.08,-0.96 2.16,-1.88 1.08,-0.96 2.12,-1.92 0.32,-0.28 0.6,-0.56 0.28,-0.28 0.68,-0.48 0.2,-0.08 0.32,-0.12 0.12,-0.08 0.24,0.12 -0.04,0.12 -0.12,0.28 -0.04,0.12 -0.12,0.32 0.2,-0.12 0.32,-0.2 0.12,-0.08 0.32,-0.16 0.12,0.2 0.16,0.44 0.08,0.2 -0.12,0.52 0.08,-0.08 0.2,-0.12 0.16,-0.08 0.36,-0.24 -0.12,0.36 -0.24,0.44 -0.4,0.4 -0.8,0.8 -0.36,0.4 -0.8,0.8 -1.16,1.04 -2.28,2.04 -1.08,0.96 -2.2,1.96 -0.12,0.12 -0.24,0.24 -0.12,0.12 -0.24,0.2 0.08,0.56 0.24,1.04 0.16,0.44 0.36,0.88 0.4,1 0.8,1.96 0.44,0.96 1.04,1.88 0.08,0.08 0.08,0.16 0,0.04 0.04,0.12 0.08,0.16 0,0.28 -0.08,0.08 -0.16,0.2 -0.2,0.2 -0.48,0.12 -0.08,-0.08 -0.16,-0.12 -0.08,-0.04 -0.16,-0.08 -0.32,-0.08 -0.44,0 -0.48,0.2 -0.68,-0.16 -0.36,-0.52 -0.76,-1.04 -0.36,-0.52 -0.68,-1.08 -0.28,-0.44 -0.52,-0.88 -0.2,-0.48 -0.48,-0.96 -0.32,0.16 -0.44,0.24 0.08,-0.12 0.2,-0.24 0.16,-0.12 0.08,-0.36 -1.04,1.04 -2.04,2 -1,0.96 -1.96,2 -0.08,0.08 -0.08,0.16 0,0.04 -0.08,0.16 0.16,-0.12 0.32,-0.2 z m 2.48,-3.28 q -0.04,0.04 -0.08,0.08 -0.04,0 -0.08,0.04 -0.68,0.68 -1.36,1.36 -0.64,0.68 -1.32,1.36 -0.08,0.08 -0.08,0.16 0,0.08 -0.08,0.2 0.12,-0.12 0.2,-0.16 0.56,-0.56 1.08,-1.12 0.56,-0.6 1.12,-1.16 0.2,-0.2 0.32,-0.36 0.12,-0.16 0.32,-0.36 0.32,-0.24 0.6,-0.48 0.28,-0.28 0.48,-0.6 0,-0.04 -0.04,-0.04 0,0 0,-0.04 -0.28,0.32 -0.56,0.6 -0.28,0.24 -0.52,0.52 z m -4.36,2.4 q 0.2,-0.16 0.28,-0.28 0.12,-0.12 0.24,-0.2 0.8,-0.88 1.6,-1.72 0.84,-0.88 1.64,-1.72 l 1,-1 q 0.24,-0.24 0,-0.36 -0.08,0.08 -0.24,0.2 -0.12,0.08 -0.2,0.2 -0.48,0.48 -0.96,1 -0.44,0.48 -0.92,0.96 -0.52,0.56 -1.04,1.08 -0.52,0.52 -1.04,1.08 -0.12,0.16 -0.28,0.32 -0.12,0.16 -0.08,0.44 z m 1.76,-0.72 q -0.88,0.48 -0.92,1.04 0.24,-0.28 0.48,-0.52 0.24,-0.28 0.44,-0.52 z m 7.68,-6.4 q 0,-0.04 -0.04,-0.04 0,0 0,-0.04 -0.12,0.12 -0.24,0.24 -0.12,0.08 -0.2,0.16 0.08,-0.08 0.2,-0.16 0.16,-0.08 0.28,-0.16 z m 0.28,-0.36 q 0.24,-0.16 0.28,-0.2 0.08,-0.08 0.2,-0.28 z m 3.48,-3.12 q 0,0.04 0,0.04 0.04,0 0.04,0.04 0.08,-0.08 0.12,-0.12 0.08,-0.08 0.16,-0.16 0,-0.04 -0.04,-0.04 -0.12,0.08 -0.28,0.24 z m -1.84,1.72 q 0,0 -0.04,-0.08 -0.04,0.04 -0.08,0.08 -0.04,0 -0.08,0.08 0.12,0 0.04,0.08 0.08,-0.04 0.08,-0.08 0.04,-0.04 0.08,-0.08 z m -3.16,2.72 q 0,0 0.08,0.08 0.12,-0.12 0.2,-0.16 -0.04,-0.04 -0.04,-0.12 -0.12,0.08 -0.24,0.2 z" />
      <path
         id="path4717"
         style=""
         d="m 192.12206,228.65977 q 0.2,-0.16 0.28,-0.28 0.12,-0.12 0.2,-0.24 0.04,0.04 0.08,0.04 -0.12,0.16 -0.2,0.32 -0.08,0.16 -0.2,0.32 -0.04,0.08 -0.12,0.16 -0.04,0.04 -0.08,0.12 0,0.28 -0.2,0.4 -0.16,0.12 -0.32,0.24 -0.2,0.16 -0.36,0.16 -0.16,0 -0.36,0 -0.16,0 -0.32,0 -0.16,0 -0.32,0.04 -0.32,0.08 -0.52,0.04 -0.16,-0.08 -0.36,-0.2 -0.4,-0.32 -0.6,-0.72 -0.2,-0.44 -0.28,-0.96 -0.32,-2.76 0.84,-5.64 0.32,-0.84 0.68,-1.68 0.4,-0.84 0.8,-1.68 0.28,-0.52 0.64,-1 0.36,-0.52 0.68,-1.04 0.16,-0.24 0.36,-0.44 0.24,-0.24 0.56,-0.32 0.16,0.16 0.08,0.32 -0.04,0.16 -0.04,0.36 -0.08,0.16 -0.16,0.16 -0.32,0.08 -0.4,0.28 -0.08,0.16 -0.16,0.36 0.68,-0.48 1.04,-1 0.08,-0.16 0.2,-0.24 0.16,-0.12 0.36,-0.04 -0.08,0.2 -0.12,0.48 0.12,-0.08 0.24,-0.16 0.12,-0.08 0.24,-0.16 0.2,0.08 0.2,0.28 0,0.16 0.08,0.36 h 0.2 v 0.12 q -0.2,0.44 -0.44,0.88 -0.2,0.44 -0.4,0.88 -0.4,0.8 -0.8,1.6 -0.36,0.76 -0.68,1.56 -0.36,0.84 -0.6,1.72 -0.2,0.84 -0.4,1.72 0.08,-0.24 0.12,-0.28 h 0.08 q -0.08,0.2 -0.16,0.4 -0.04,0.16 -0.12,0.36 -0.12,0.32 -0.2,0.64 -0.08,0.28 0.08,0.6 0.04,0.16 -0.04,0.68 0.16,-0.16 0.28,-0.28 0.12,-0.12 0.28,-0.24 0.08,0 0.12,0.04 l -0.24,0.6 q 0.04,0 0.08,0.04 0.08,-0.16 0.2,-0.28 0.12,-0.12 0.24,-0.24 0.2,0.08 0.16,0.2 0,0.08 -0.2,0.64 z m 0.12,-10.56 q 0.04,-0.08 0.04,-0.12 0,-0.04 0.04,-0.12 -0.08,0.08 -0.12,0.12 0,0.04 -0.08,0.12 z m 1.16,-0.32 q 0.08,-0.16 0.16,-0.2 -0.04,-0.04 -0.08,-0.04 -0.04,0.04 -0.12,0.2 0.04,0 0,0.04 0,0 0.04,0 z m 4.44,-7.68 q 0.12,0.08 -0.04,0.4 -0.12,0.24 -0.28,0.48 -0.12,0.24 -0.28,0.52 -0.2,0.44 -0.44,0.84 -0.24,0.36 -0.48,0.8 -0.12,0.32 -0.2,0.6 -0.08,0.28 -0.04,0.56 0,0.44 -0.36,0.64 -0.08,0 -0.08,0.12 l -1.08,-0.12 q -0.04,0.04 -0.08,0.04 -0.36,0.32 -0.52,0.36 -0.12,0 -0.28,-0.32 -0.08,-0.08 -0.08,-0.12 0,-0.04 -0.04,-0.08 -0.44,-0.12 -0.44,-0.44 0,-0.36 0,-0.68 0,-0.28 0.04,-0.52 0.08,-0.24 0.16,-0.48 0.2,-0.56 0.4,-1.12 0.24,-0.6 0.48,-1.16 0.24,-0.72 0.84,-1.12 0.12,-0.08 0.2,-0.08 0.12,-0.04 0.2,-0.12 0,0.24 0,0.4 0.04,0.16 -0.04,0.36 -0.08,0.2 -0.2,0.4 -0.08,0.16 -0.2,0.36 0.36,-0.04 0.44,-0.24 0.12,-0.2 0.24,-0.36 0.16,-0.2 0.28,-0.36 0.12,-0.2 0.24,-0.4 0.4,0 0.4,0.36 -0.08,0.36 -0.24,0.72 -0.16,0.32 -0.36,0.64 -0.12,0.2 -0.28,0.4 -0.12,0.2 -0.12,0.4 0.4,-0.56 0.68,-1.12 0.32,-0.6 0.76,-1.16 0.64,0.28 0.36,0.88 -0.04,0.08 -0.04,0.12 0,0.04 -0.08,0.12 0.12,-0.12 0.24,-0.24 0.16,-0.16 0.32,-0.28 z m -3.16,4.36 q 0,0 0.04,0 0.04,0 0.08,-0.04 -0.04,-0.04 -0.04,-0.08 0.04,-0.04 0,-0.08 l -0.16,0.08 q 0,0.12 0.08,0.12 z m 2.6,-3.8 q -0.2,0.32 -0.4,0.64 -0.16,0.28 -0.28,0.6 -0.2,0.32 -0.4,0.64 -0.16,0.32 -0.2,0.64 0.08,-0.08 0.12,-0.12 0.04,-0.04 0.12,-0.12 0.2,-0.44 0.44,-0.88 0.24,-0.48 0.48,-0.92 z m -2.84,7.8 q 0,0.12 -0.16,0.48 -0.12,0.36 -0.32,0.8 -0.2,0.4 -0.44,0.8 -0.2,0.4 -0.36,0.6 0.24,-0.68 0.56,-1.32 0.32,-0.64 0.72,-1.36 z m -2.76,6.48 q 0.08,-0.2 0.08,-0.32 0.04,-0.16 0.12,-0.36 h 0.12 q 0,0.2 -0.12,0.36 -0.08,0.12 -0.2,0.32 z m 5.84,-13.32 q 0.08,-0.2 0.12,-0.36 0.04,-0.16 0.28,-0.2 -0.08,0.12 -0.2,0.28 -0.08,0.12 -0.2,0.28 z m -2.88,6.56 -0.04,-0.04 q 0.04,-0.08 0.08,-0.12 0.04,-0.04 0.04,-0.12 h 0.08 q -0.04,0.08 -0.08,0.16 0,0.04 -0.04,0.12 z m 3.44,-7.56 h 0.08 q -0.08,0.12 -0.12,0.24 -0.04,0.08 -0.12,0.2 0.08,-0.32 0.16,-0.44 z m -5.84,12.88 q 0,0.04 -0.04,0.08 0,0.04 0,0.08 h -0.08 q 0,-0.04 0,-0.08 0.04,-0.04 0.04,-0.08 z" />
      <path
         id="path4719"
         style=""
         d="m 204.16669,224.29977 q -0.04,0.04 0.04,0.04 -0.08,0.2 -0.16,0.36 -0.04,0.16 -0.12,0.32 -0.12,0.24 -0.24,0.48 -0.08,0.24 -0.2,0.44 -0.2,0.32 -0.4,0.52 -0.84,0.84 -1.76,1.6 -0.88,0.76 -1.92,1.36 -0.24,0.16 -0.48,0.28 -0.24,0.12 -0.48,0.16 -0.68,0.12 -1.36,0.28 -0.68,0.12 -1.32,0.08 -1.2,-0.08 -1.96,-0.68 -0.72,-0.64 -1.12,-1.68 -0.24,-0.64 -0.28,-1.32 -0.04,-0.72 0.04,-1.44 0.28,-1.68 0.92,-3.28 0.64,-1.6 1.72,-3.12 0.64,-0.88 1.4,-1.56 0.8,-0.68 1.8,-1.12 1.2,-0.52 2.2,-0.28 1.48,0.24 2.72,1.16 0.08,0.08 0.2,0.2 0.16,0.08 0.24,0.2 0.72,0.72 0.04,1.88 -0.44,0.76 -0.96,1.52 -0.52,0.72 -1.16,1.4 -0.24,0.24 -0.44,0.52 -0.2,0.24 -0.44,0.52 0,0.36 -0.32,0.36 -0.2,0.2 -0.4,0.44 -0.16,0.2 -0.36,0.4 -0.56,0.56 -1.16,1.08 -0.56,0.52 -1.16,1.08 -0.12,0.08 -0.28,0.2 -0.12,0.08 -0.28,0.16 -0.12,0.04 -0.44,0.04 -0.08,0.24 -0.08,0.44 0,0.68 0.36,0.88 0.2,0.12 0.4,0 0.24,-0.12 0.44,-0.24 2.04,-1.04 3.84,-2.84 0.2,-0.2 0.32,-0.4 0.16,-0.2 0.32,-0.4 0.16,-0.16 0.28,-0.28 0.12,-0.12 0.28,-0.2 -0.08,0.36 -0.28,0.72 -0.16,0.32 -0.24,0.68 0.2,-0.2 0.32,-0.36 0.12,-0.2 0.32,-0.4 0.2,-0.16 0.28,-0.36 0.08,-0.2 0.36,-0.32 0.12,0.2 -0.04,0.4 -0.16,0.2 -0.08,0.44 0.16,-0.2 0.28,-0.36 0.16,-0.2 0.28,-0.36 0.24,0.16 0.24,0.28 0.04,0.12 -0.16,0.68 0.08,-0.16 0.2,-0.28 0.12,-0.16 0.24,-0.32 z m -2.76,-2.52 q 0.12,-0.16 0.28,-0.24 0.16,-0.12 0.16,-0.32 -0.36,0.28 -0.44,0.56 z m 1.52,-2.04 q -0.24,0.36 -0.52,0.72 -0.24,0.36 -0.48,0.72 0.44,-0.28 0.64,-0.64 0.24,-0.4 0.48,-0.76 -0.04,-0.04 -0.12,-0.04 z m -0.84,-0.16 q -0.2,0.24 -0.36,0.48 -0.12,0.24 -0.28,0.48 0.08,0 0.12,0.04 0.16,-0.24 0.28,-0.48 0.16,-0.24 0.36,-0.48 -0.04,0 -0.08,0 0,-0.04 -0.04,-0.04 z m -7,0.64 q 1.16,-1.4 2.2,-2.56 -0.08,-0.08 -0.08,-0.08 -0.64,0.32 -1.12,0.92 -0.44,0.6 -1,1.72 z m 1.12,0.28 q 0.32,-0.44 0.56,-0.84 0.28,-0.4 0.56,-0.84 -0.08,0 -0.08,-0.04 -0.72,0.72 -1.16,1.68 0.04,0.04 0.12,0.04 z m 2.28,-1.72 q -0.52,0.44 -0.84,1 -0.32,0.52 -0.52,1.08 0.32,-0.52 0.68,-1.04 0.36,-0.52 0.68,-1.04 z m 0.68,0 q -0.4,0.24 -0.88,0.84 -0.44,0.56 -0.84,1.28 -0.36,0.68 -0.68,1.44 -0.28,0.72 -0.32,1.28 0.44,-1.28 1.08,-2.48 0.64,-1.2 1.64,-2.36 z m -2.56,5.04 q -0.08,0.08 -0.08,0.2 0.04,0.12 0,0.32 0.28,-0.32 0.48,-0.56 0.2,-0.24 0.4,-0.48 0.8,-0.88 1.52,-1.76 0.76,-0.92 1.36,-1.92 0.36,-0.52 0.64,-1.28 0.12,-0.68 -0.56,-0.32 -0.16,0.08 -0.24,0.16 -0.92,0.64 -1.56,1.64 -0.68,0.96 -1.16,1.96 -0.48,1 -0.8,2.04 z m -0.28,1.68 q 0.08,-0.08 0.12,-0.12 0.08,-0.08 0.12,-0.16 0.64,-0.68 1.24,-1.32 0.64,-0.68 1.2,-1.36 0.48,-0.56 0.96,-1.16 0.48,-0.64 0.92,-1.24 0.12,-0.16 0.2,-0.32 0.12,-0.16 0.04,-0.36 -0.24,0.08 -0.32,0.24 -0.08,0.16 -0.2,0.32 -0.32,0.48 -0.64,0.96 -0.32,0.44 -0.68,0.88 -0.68,0.8 -1.36,1.56 -0.68,0.76 -1.36,1.56 -0.08,0.12 -0.2,0.24 -0.08,0.08 -0.04,0.28 z m 6.56,-4.48 q -0.04,0 -0.08,0 0,-0.04 -0.04,-0.04 0.28,-0.44 0.56,-0.88 0.28,-0.48 0.6,-0.96 0.04,0.04 0.08,0.04 -0.28,0.48 -0.56,0.96 -0.28,0.44 -0.56,0.88 z" />
    </g>
    <g
       id="flowRoot10"
       style="font-style:normal;font-variant:normal;font-weight:normal;font-stretch:normal;font-size:40px;line-height:1.25;font-family:'Parkway Lush';-inkscape-font-specification:'Parkway Lush';letter-spacing:-2.59599876px;word-spacing:0px;fill:#ff0088;fill-opacity:1;stroke:none"
       transform="matrix(0.45965767,0,0,0.45965767,-13.743038,-51.973701)"
       aria-label="Pixie &amp; Dixie">
      <path
         id="path4676"
         d="m 94.061172,213.93977 q -0.2,1.04 -0.64,2 -0.4,0.92 -1.08,1.84 -0.8,1.16 -1.76,2.16 -0.96,0.96 -2,1.88 -0.48,0.4 -1,0.84 -0.48,0.4 -1.16,0.44 -0.04,0.48 -0.36,0.6 -0.28,0.12 -0.56,0.24 -0.72,0.4 -1.48,0.72 -0.72,0.32 -1.48,0.64 -0.36,0.12 -0.72,0.4 -0.2,0.12 -0.4,0.24 -0.16,0.12 -0.36,0.12 -0.4,0.04 -0.8,0.24 -0.36,0.2 -0.76,0.2 -0.36,0.48 -0.44,0.96 -0.08,0.48 -0.28,0.92 0.08,-0.32 0.12,-0.64 0.08,-0.32 0.16,-0.64 -0.4,0.96 -0.6,1.92 -0.2,0.96 -0.32,1.92 -0.08,0.6 -0.16,1.2 -0.04,0.6 -0.08,1.2 -0.08,0.64 0.12,1.24 0.12,0.44 -0.32,0.88 -0.28,-0.04 -0.56,-0.04 -0.24,-0.04 -0.56,-0.04 -0.12,0.12 -0.24,0.28 -0.08,0.12 -0.28,0.32 -0.08,-0.08 -0.16,-0.16 -0.08,-0.08 -0.2,-0.12 -0.68,-0.28 -0.8,-0.88 -0.08,-0.64 -0.12,-1.28 -0.08,-1 0,-1.96 0.12,-1 0.32,-2.04 0.08,-0.48 0.16,-0.96 0.08,-0.48 0.16,-0.96 0.04,-0.08 0.04,-0.2 0,-0.12 0.04,-0.32 -0.32,0 -0.64,0 -0.28,-0.04 -0.6,-0.08 -0.08,0 -0.16,0 -0.08,0 -0.12,-0.04 -0.24,-0.08 -0.44,-0.24 -0.16,-0.2 -0.48,-0.12 -0.04,-0.24 -0.28,-0.32 -0.2,-0.12 -0.12,-0.44 0,-0.12 -0.04,-0.2 0,-0.12 -0.04,-0.24 0.08,0 0.12,0 0.08,-0.04 0.16,-0.04 0.32,-0.28 0.52,-0.52 0.24,-0.28 0.52,-0.52 0.08,-0.08 0.2,-0.08 0.12,0 0.16,0.16 0,0.08 0,0.16 0.04,0.04 0.04,0.16 0.16,-0.08 0.28,-0.16 0.16,-0.08 0.24,-0.16 0.28,0.04 0.48,0.08 0.2,0.04 0.44,0.04 0.4,-0.08 0.52,-0.52 0.08,-0.32 0.12,-0.64 0.08,-0.32 0.16,-0.64 0.12,-0.4 -0.36,-0.4 0.04,0.16 0.16,0.4 -0.12,0.12 -0.36,0.44 -0.16,-0.08 -0.16,-0.08 -0.12,-0.36 -0.52,-0.4 -0.28,-0.08 -0.44,-0.4 -0.24,-0.36 -0.44,-0.76 -0.2,-0.4 -0.48,-0.84 0.08,-0.08 0.16,-0.12 0.12,-0.04 0.2,-0.12 -0.04,0 -0.04,-0.04 0,-0.04 -0.04,-0.04 0,0 0,-0.04 -0.2,0.16 -0.36,0.16 -0.12,0 -0.24,-0.04 -0.08,-0.08 -0.16,-0.16 -0.08,-0.12 -0.16,-0.2 -0.04,-0.04 -0.04,-0.08 0,-0.12 0.08,-0.2 0.08,-0.08 0.16,-0.12 0.12,-0.08 0.16,-0.16 0.04,-0.08 -0.04,-0.2 -0.68,0.44 -1.16,-0.04 -0.72,-0.68 -1.36,-1.48 -0.44,-0.56 -0.56,-1.28 -0.2,-0.64 0.04,-1.28 0.24,-0.68 0.72,-1.36 0.68,-0.92 1.52,-1.56 0.84,-0.64 1.8,-1.2 0.96,-0.56 1.92,-0.96 1,-0.44 2.04,-0.76 2.04,-0.68 4.04,-1 2.04,-0.36 4,-0.24 1.64,0.08 3.04,0.48 1.44,0.4 2.6,1.32 0.76,0.56 1.24,1.36 0.56,0.76 0.44,1.68 -0.08,0.92 -0.48,1.84 -1.24,2.64 -3.16,4.8 -0.12,0.12 -0.24,0.28 -0.08,0.12 -0.16,0.24 0.16,-0.08 0.28,-0.16 0.16,-0.08 0.24,-0.2 0.92,-1.04 1.68,-2.12 0.76,-1.08 1.28,-2.32 0.16,-0.36 0.32,-0.72 0.16,-0.36 0.36,-0.72 z m -1.84,2.12 q -0.4,0.56 -0.76,1.12 -0.36,0.52 -0.76,1.08 0.52,-0.48 0.92,-1 0.4,-0.56 0.6,-1.2 z m -20.44,-0.96 q 0.8,-0.56 1.08,-1.4 -0.52,0.24 -0.72,0.6 -0.2,0.32 -0.36,0.8 z m 2.8,-0.36 q -0.08,0.12 -0.12,0.24 -0.04,0.08 -0.12,0.2 h 0.16 q 0.04,-0.08 0.08,-0.2 0.04,-0.12 0.08,-0.2 -0.04,0 -0.04,0 0,-0.04 -0.04,-0.04 z m -1.12,4.24 q 0.04,0 0.2,-0.08 -0.12,-0.12 -0.08,-0.12 -0.16,0 -0.16,0.08 0,0.12 0.04,0.12 z m 1.36,-3.36 q 0.2,-0.24 0.24,-0.32 0.04,-0.08 0.12,-0.4 -0.16,0.2 -0.28,0.36 -0.12,0.16 -0.2,0.28 0.04,0.04 0.04,0.04 0.04,0 0.08,0.04 z m -0.4,3.8 q 0.12,0.04 0.2,0.08 0.08,0 0.24,0.04 -0.08,-0.28 -0.16,-0.28 -0.08,0 -0.28,0.16 z m 0.96,-0.84 q 0.08,-0.08 0.16,-0.08 0.08,-0.04 0.16,-0.08 -0.08,-0.08 -0.04,-0.08 -0.12,0 -0.28,0.08 z m 5.96,-3.36 q 0.12,-0.24 0.2,-0.44 0.08,-0.24 0.2,-0.48 h -0.12 q -0.08,0.2 -0.2,0.44 -0.12,0.24 -0.2,0.44 0.12,0 0.12,0.04 z m 0.24,9.96 q 0.08,-0.2 0.12,-0.32 0.04,-0.16 -0.24,-0.2 0.04,0.08 0.04,0.2 0,0.12 0.08,0.32 z m 1.32,-0.96 q 0,-0.04 0,-0.04 0.04,-0.04 0.04,-0.08 h -0.28 q 0,0.04 -0.04,0.08 0.08,0.04 0.28,0.04 z m -1.56,-2.32 q 0.68,-0.52 1.4,-1 0.72,-0.52 1.4,-1.08 1.08,-0.92 2.08,-1.92 1.04,-1.04 1.84,-2.2 0.48,-0.68 0.8,-1.36 0.36,-0.68 0.52,-1.4 0.08,-0.76 -0.12,-1.16 -0.2,-0.44 -0.88,-0.68 -0.56,-0.2 -1.16,-0.2 -0.56,-0.04 -1.2,0.04 -1.04,0.08 -2.16,0.32 -1.08,0.24 -2.16,0.56 -2.24,0.64 -4.36,1.8 -0.64,0.32 -1.2,0.76 -0.52,0.44 -0.96,1.08 -0.44,0.56 -0.2,1.04 0.24,0.36 0,0.8 0.12,0.04 0.24,0.04 0.16,-0.04 0.16,0 0.08,0.2 0.24,0.32 0.2,0.12 0.32,0.28 0.16,0.12 0.2,0.32 0.08,0.2 -0.08,0.52 0.16,0 0.28,-0.04 0.16,-0.04 0.24,0.04 0.32,0.2 0.44,0.48 0.12,0.32 0.52,0.28 0.08,-0.4 0.16,-0.56 0.36,-1.04 0.72,-2.04 0.4,-1 0.84,-2.04 0.2,-0.48 0.48,-0.92 0.32,-0.44 0.64,-0.88 0.08,-0.2 0.24,-0.36 0.2,-0.16 0.48,-0.16 0.12,0.36 -0.08,0.68 -0.16,0.28 -0.4,0.56 -0.4,0.48 -0.36,1.08 0.08,-0.16 0.16,-0.24 0.08,-0.12 0.16,-0.2 0.2,-0.32 0.44,-0.68 0.28,-0.36 0.48,-0.68 0.16,-0.2 0.28,-0.36 0.16,-0.16 0.48,-0.08 0.04,0.12 0,0.24 0,0.12 0.04,0.28 0.2,-0.2 0.44,-0.36 0.16,0 0.24,0.12 0.08,0.08 0.12,0.2 0.04,0.12 0.12,0.2 0.08,0.08 0.32,0 -0.88,2.28 -1.8,4.56 -0.88,2.24 -1.52,4.6 0.32,-0.2 0.56,-0.32 0.28,-0.12 0.56,-0.28 z m 1.2,-6.96 q 0.04,-0.08 0.04,-0.2 0.04,-0.12 0.08,-0.2 h -0.08 q -0.04,0.16 -0.12,0.4 z m 3.56,4.48 q 0.52,-0.28 1.04,-0.76 0.52,-0.48 1,-1.04 0.48,-0.56 0.84,-1.12 0.36,-0.6 0.56,-1.16 -0.72,1.08 -1.6,2.08 -0.84,1 -1.84,2 z m 3.92,-2.4 q 0.04,0.04 0.04,0.04 0.04,0 0.08,0.04 0.2,-0.28 0.36,-0.52 0.2,-0.28 0.4,-0.56 -0.04,-0.04 -0.08,-0.04 0,0 -0.04,-0.04 -0.2,0.28 -0.4,0.56 -0.16,0.24 -0.36,0.52 z m -0.4,3.6 q 0.08,-0.16 0.24,-0.4 -0.24,0.12 -0.24,0.4 z m -16.8,4.2 q -0.24,0.24 -0.24,0.6 l -0.28,0.28 q 0.04,-0.24 -0.04,-0.4 -0.08,-0.2 0.2,-0.4 0.16,-0.16 0.28,-0.28 0.12,-0.16 0.28,-0.32 h 0.12 q -0.08,0.16 -0.16,0.32 -0.04,0.12 -0.16,0.2 z m 5.4,6.56 q -0.04,-0.08 -0.04,-0.2 0,-0.12 -0.04,-0.24 0.08,-0.24 0.12,-0.48 0.08,-0.24 0.16,-0.48 h 0.08 q -0.16,0.72 -0.24,1.4 z m 3.44,-12.64 q 0.2,-0.52 0.4,-1.04 0.24,-0.52 0.44,-1.04 0.04,-0.08 0.08,-0.12 0.08,-0.08 0.16,-0.16 -0.28,0.68 -0.56,1.36 -0.24,0.64 -0.48,1.32 -0.12,0.12 -0.12,0.28 h -0.12 q 0.04,-0.16 0.08,-0.28 0.08,-0.16 0.12,-0.32 z m 1.08,-2.36 q 0.08,-0.28 0.12,-0.52 0.04,-0.24 0.12,-0.48 h 0.12 q -0.08,0.12 -0.12,0.24 0,0.12 -0.08,0.2 -0.04,0.16 -0.08,0.28 -0.04,0.12 -0.08,0.24 z m -2.12,5.4 q 0.08,-0.2 0.08,-0.32 0.04,-0.16 0.12,-0.36 h 0.08 q -0.08,0.2 -0.12,0.36 0,0.12 -0.08,0.32 z m 2.8,-7.48 q 0.04,0 0.04,0.04 0,0.08 -0.08,0.2 -0.04,0.12 -0.08,0.24 h -0.12 z m -2.24,5.84 q 0.08,-0.16 0.08,-0.24 h 0.08 q 0,0.08 -0.08,0.24 z" />
      <path
         id="path4678"
         style=""
         d="m 93.238298,228.65977 q 0.2,-0.16 0.28,-0.28 0.12,-0.12 0.2,-0.24 0.04,0.04 0.08,0.04 -0.12,0.16 -0.2,0.32 -0.08,0.16 -0.2,0.32 -0.04,0.08 -0.12,0.16 -0.04,0.04 -0.08,0.12 0,0.28 -0.2,0.4 -0.16,0.12 -0.32,0.24 -0.2,0.16 -0.36,0.16 -0.16,0 -0.36,0 -0.16,0 -0.32,0 -0.16,0 -0.32,0.04 -0.32,0.08 -0.52,0.04 -0.16,-0.08 -0.36,-0.2 -0.4,-0.32 -0.6,-0.72 -0.2,-0.44 -0.28,-0.96 -0.32,-2.76 0.84,-5.64 0.32,-0.84 0.68,-1.68 0.4,-0.84 0.8,-1.68 0.28,-0.52 0.64,-1 0.36,-0.52 0.68,-1.04 0.16,-0.24 0.36,-0.44 0.24,-0.24 0.56,-0.32 0.16,0.16 0.08,0.32 -0.04,0.16 -0.04,0.36 -0.08,0.16 -0.16,0.16 -0.32,0.08 -0.4,0.28 -0.08,0.16 -0.16,0.36 0.68,-0.48 1.04,-1 0.08,-0.16 0.2,-0.24 0.16,-0.12 0.36,-0.04 -0.08,0.2 -0.12,0.48 0.12,-0.08 0.24,-0.16 0.12,-0.08 0.24,-0.16 0.2,0.08 0.2,0.28 0,0.16 0.08,0.36 h 0.2 v 0.12 q -0.2,0.44 -0.44,0.88 -0.2,0.44 -0.4,0.88 -0.4,0.8 -0.8,1.6 -0.36,0.76 -0.68,1.56 -0.36,0.84 -0.6,1.72 -0.2,0.84 -0.4,1.72 0.08,-0.24 0.12,-0.28 h 0.08 q -0.08,0.2 -0.16,0.4 -0.04,0.16 -0.12,0.36 -0.12,0.32 -0.2,0.64 -0.08,0.28 0.08,0.6 0.04,0.16 -0.04,0.68 0.16,-0.16 0.28,-0.28 0.12,-0.12 0.28,-0.24 0.08,0 0.12,0.04 l -0.24,0.6 q 0.04,0 0.08,0.04 0.08,-0.16 0.2,-0.28 0.12,-0.12 0.24,-0.24 0.2,0.08 0.16,0.2 0,0.08 -0.2,0.64 z m 0.12,-10.56 q 0.04,-0.08 0.04,-0.12 0,-0.04 0.04,-0.12 -0.08,0.08 -0.12,0.12 0,0.04 -0.08,0.12 z m 1.16,-0.32 q 0.08,-0.16 0.16,-0.2 -0.04,-0.04 -0.08,-0.04 -0.04,0.04 -0.12,0.2 0.04,0 0,0.04 0,0 0.04,0 z m 4.44,-7.68 q 0.12,0.08 -0.04,0.4 -0.12,0.24 -0.28,0.48 -0.12,0.24 -0.28,0.52 -0.2,0.44 -0.44,0.84 -0.24,0.36 -0.48,0.8 -0.12,0.32 -0.2,0.6 -0.08,0.28 -0.04,0.56 0,0.44 -0.36,0.64 -0.08,0 -0.08,0.12 l -1.08,-0.12 q -0.04,0.04 -0.08,0.04 -0.36,0.32 -0.52,0.36 -0.12,0 -0.28,-0.32 -0.08,-0.08 -0.08,-0.12 0,-0.04 -0.04,-0.08 -0.44,-0.12 -0.44,-0.44 0,-0.36 0,-0.68 0,-0.28 0.04,-0.52 0.08,-0.24 0.16,-0.48 0.2,-0.56 0.4,-1.12 0.24,-0.6 0.48,-1.16 0.24,-0.72 0.84,-1.12 0.12,-0.08 0.2,-0.08 0.12,-0.04 0.2,-0.12 0,0.24 0,0.4 0.04,0.16 -0.04,0.36 -0.08,0.2 -0.2,0.4 -0.08,0.16 -0.2,0.36 0.36,-0.04 0.44,-0.24 0.12,-0.2 0.24,-0.36 0.16,-0.2 0.28,-0.36 0.12,-0.2 0.24,-0.4 0.4,0 0.4,0.36 -0.08,0.36 -0.24,0.72 -0.16,0.32 -0.36,0.64 -0.12,0.2 -0.28,0.4 -0.12,0.2 -0.12,0.4 0.4,-0.56 0.68,-1.12 0.32,-0.6 0.76,-1.16 0.64,0.28 0.36,0.88 -0.04,0.08 -0.04,0.12 0,0.04 -0.08,0.12 0.12,-0.12 0.24,-0.24 0.16,-0.16 0.32,-0.28 z m -3.16,4.36 q 0,0 0.04,0 0.04,0 0.08,-0.04 -0.04,-0.04 -0.04,-0.08 0.04,-0.04 0,-0.08 l -0.16,0.08 q 0,0.12 0.08,0.12 z m 2.6,-3.8 q -0.2,0.32 -0.4,0.64 -0.16,0.28 -0.28,0.6 -0.2,0.32 -0.4,0.64 -0.16,0.32 -0.2,0.64 0.08,-0.08 0.12,-0.12 0.04,-0.04 0.12,-0.12 0.2,-0.44 0.44,-0.88 0.24,-0.48 0.48,-0.92 z m -2.84,7.8 q 0,0.12 -0.16,0.48 -0.12,0.36 -0.32,0.8 -0.2,0.4 -0.44,0.8 -0.2,0.4 -0.36,0.6 0.24,-0.68 0.56,-1.32 0.32,-0.64 0.72,-1.36 z m -2.76,6.48 q 0.08,-0.2 0.08,-0.32 0.04,-0.16 0.12,-0.36 h 0.12 q 0,0.2 -0.12,0.36 -0.08,0.12 -0.2,0.32 z m 5.84,-13.32 q 0.08,-0.2 0.12,-0.36 0.04,-0.16 0.28,-0.2 -0.08,0.12 -0.2,0.28 -0.08,0.12 -0.2,0.28 z m -2.88,6.56 -0.04,-0.04 q 0.04,-0.08 0.08,-0.12 0.04,-0.04 0.04,-0.12 h 0.08 q -0.04,0.08 -0.08,0.16 0,0.04 -0.04,0.12 z m 3.44,-7.56 h 0.08 q -0.08,0.12 -0.12,0.24 -0.04,0.08 -0.12,0.2 0.08,-0.32 0.16,-0.44 z m -5.84,12.88 q 0,0.04 -0.04,0.08 0,0.04 0,0.08 h -0.08 q 0,-0.04 0,-0.08 0.04,-0.04 0.04,-0.08 z" />
      <path
         id="path4680"
         style=""
         d="m 95.482924,229.45977 q -0.16,0.32 -0.44,0.52 -0.24,0.16 -0.6,0.36 0.12,-0.36 0.12,-0.48 -0.44,0 -0.52,-0.08 -0.04,-0.08 -0.08,-0.52 -0.12,0.16 -0.2,0.28 -0.08,0.08 -0.16,0.16 -0.16,0.24 -0.4,0.24 -0.32,0 -0.16,-0.36 0.04,-0.12 0.08,-0.28 0.04,-0.16 0.12,-0.36 -0.32,0.28 -0.44,0.44 -0.2,-0.12 -0.2,-0.28 0.04,-0.16 0.12,-0.32 0.12,-0.48 0.48,-0.76 0.64,-0.76 1.28,-1.48 0.68,-0.76 1.36,-1.48 0.56,-0.64 1.12,-1.24 0.6,-0.6 1.16,-1.24 -0.04,-0.08 -0.12,-0.32 -0.32,-0.92 -0.6,-1.76 -0.24,-0.88 -0.56,-1.76 -0.12,-0.32 -0.28,-0.6 -0.16,-0.28 -0.32,-0.6 -0.4,-0.52 0.12,-1 0.68,-0.64 1.2,-0.24 0.16,0.08 0.24,0.08 0.64,0.04 1,0.36 0.4,0.32 0.72,0.72 0.4,0.44 0.599996,1 0.2,0.56 0.32,1.2 0,0.24 0.08,0.32 -0.04,0.04 0.04,0.08 0.12,-0.08 0.24,-0.2 0.16,-0.12 0.28,-0.2 0.92,-0.84 1.84,-1.64 0.96,-0.84 1.96,-1.64 0.16,-0.16 0.32,-0.28 0.2,-0.16 0.4,-0.28 0.16,-0.08 0.28,-0.12 0.16,-0.04 0.36,-0.12 0.04,0.04 0.04,0.08 -0.08,0.16 -0.12,0.32 -0.04,0.12 -0.16,0.24 -0.36,0.4 -0.96,0.88 -1.04,0.8 -2.04,1.72 -1,0.88 -2,1.8 -0.16,0.2 -0.2,0.28 0,0.04 0,0.28 0.24,-0.16 0.32,-0.28 1.08,-0.96 2.16,-1.88 1.08,-0.96 2.12,-1.92 0.32,-0.28 0.6,-0.56 0.28,-0.28 0.68,-0.48 0.2,-0.08 0.32,-0.12 0.12,-0.08 0.24,0.12 -0.04,0.12 -0.12,0.28 -0.04,0.12 -0.12,0.32 0.2,-0.12 0.32,-0.2 0.12,-0.08 0.32,-0.16 0.12,0.2 0.16,0.44 0.08,0.2 -0.12,0.52 0.08,-0.08 0.2,-0.12 0.16,-0.08 0.36,-0.24 -0.12,0.36 -0.24,0.44 -0.4,0.4 -0.8,0.8 -0.36,0.4 -0.8,0.8 -1.16,1.04 -2.28,2.04 -1.08,0.96 -2.2,1.96 -0.12,0.12 -0.24,0.24 -0.12,0.12 -0.24,0.2 0.08,0.56 0.24,1.04 0.16,0.44 0.36,0.88 0.4,1 0.8,1.96 0.44,0.96 1.04,1.88 0.08,0.08 0.08,0.16 0,0.04 0.04,0.12 0.08,0.16 0,0.28 -0.08,0.08 -0.16,0.2 -0.2,0.2 -0.48,0.12 -0.08,-0.08 -0.16,-0.12 -0.08,-0.04 -0.16,-0.08 -0.32,-0.08 -0.44,0 -0.48,0.2 -0.68,-0.16 -0.36,-0.52 -0.76,-1.04 -0.36,-0.52 -0.68,-1.08 -0.28,-0.44 -0.519996,-0.88 -0.2,-0.48 -0.48,-0.96 -0.32,0.16 -0.44,0.24 0.08,-0.12 0.2,-0.24 0.16,-0.12 0.08,-0.36 -1.04,1.04 -2.04,2 -1,0.96 -1.96,2 -0.08,0.08 -0.08,0.16 0,0.04 -0.08,0.16 0.16,-0.12 0.32,-0.2 z m 2.48,-3.28 q -0.04,0.04 -0.08,0.08 -0.04,0 -0.08,0.04 -0.68,0.68 -1.36,1.36 -0.64,0.68 -1.32,1.36 -0.08,0.08 -0.08,0.16 0,0.08 -0.08,0.2 0.12,-0.12 0.2,-0.16 0.56,-0.56 1.08,-1.12 0.56,-0.6 1.12,-1.16 0.2,-0.2 0.32,-0.36 0.12,-0.16 0.32,-0.36 0.32,-0.24 0.6,-0.48 0.28,-0.28 0.48,-0.6 0,-0.04 -0.04,-0.04 0,0 0,-0.04 -0.28,0.32 -0.56,0.6 -0.28,0.24 -0.52,0.52 z m -4.36,2.4 q 0.2,-0.16 0.28,-0.28 0.12,-0.12 0.24,-0.2 0.8,-0.88 1.6,-1.72 0.84,-0.88 1.64,-1.72 l 1,-1 q 0.24,-0.24 0,-0.36 -0.08,0.08 -0.24,0.2 -0.12,0.08 -0.2,0.2 -0.48,0.48 -0.96,1 -0.44,0.48 -0.92,0.96 -0.52,0.56 -1.04,1.08 -0.52,0.52 -1.04,1.08 -0.12,0.16 -0.28,0.32 -0.12,0.16 -0.08,0.44 z m 1.76,-0.72 q -0.88,0.48 -0.92,1.04 0.24,-0.28 0.48,-0.52 0.24,-0.28 0.44,-0.52 z m 7.679996,-6.4 q 0,-0.04 -0.04,-0.04 0,0 0,-0.04 -0.12,0.12 -0.24,0.24 -0.12,0.08 -0.2,0.16 0.08,-0.08 0.2,-0.16 0.16,-0.08 0.28,-0.16 z m 0.28,-0.36 q 0.24,-0.16 0.28,-0.2 0.08,-0.08 0.2,-0.28 z m 3.48,-3.12 q 0,0.04 0,0.04 0.04,0 0.04,0.04 0.08,-0.08 0.12,-0.12 0.08,-0.08 0.16,-0.16 0,-0.04 -0.04,-0.04 -0.12,0.08 -0.28,0.24 z m -1.84,1.72 q 0,0 -0.04,-0.08 -0.04,0.04 -0.08,0.08 -0.04,0 -0.08,0.08 0.12,0 0.04,0.08 0.08,-0.04 0.08,-0.08 0.04,-0.04 0.08,-0.08 z m -3.16,2.72 q 0,0 0.08,0.08 0.12,-0.12 0.2,-0.16 -0.04,-0.04 -0.04,-0.12 -0.12,0.08 -0.24,0.2 z" />
      <path
         id="path4682"
         style=""
         d="m 108.74943,228.65977 q 0.2,-0.16 0.28,-0.28 0.12,-0.12 0.2,-0.24 0.04,0.04 0.08,0.04 -0.12,0.16 -0.2,0.32 -0.08,0.16 -0.2,0.32 -0.04,0.08 -0.12,0.16 -0.04,0.04 -0.08,0.12 0,0.28 -0.2,0.4 -0.16,0.12 -0.32,0.24 -0.2,0.16 -0.36,0.16 -0.16,0 -0.36,0 -0.16,0 -0.32,0 -0.16,0 -0.32,0.04 -0.32,0.08 -0.52,0.04 -0.16,-0.08 -0.36,-0.2 -0.4,-0.32 -0.6,-0.72 -0.2,-0.44 -0.28,-0.96 -0.32,-2.76 0.84,-5.64 0.32,-0.84 0.68,-1.68 0.4,-0.84 0.8,-1.68 0.28,-0.52 0.64,-1 0.36,-0.52 0.68,-1.04 0.16,-0.24 0.36,-0.44 0.24,-0.24 0.56,-0.32 0.16,0.16 0.08,0.32 -0.04,0.16 -0.04,0.36 -0.08,0.16 -0.16,0.16 -0.32,0.08 -0.4,0.28 -0.08,0.16 -0.16,0.36 0.68,-0.48 1.04,-1 0.08,-0.16 0.2,-0.24 0.16,-0.12 0.36,-0.04 -0.08,0.2 -0.12,0.48 0.12,-0.08 0.24,-0.16 0.12,-0.08 0.24,-0.16 0.2,0.08 0.2,0.28 0,0.16 0.08,0.36 h 0.2 v 0.12 q -0.2,0.44 -0.44,0.88 -0.2,0.44 -0.4,0.88 -0.4,0.8 -0.8,1.6 -0.36,0.76 -0.68,1.56 -0.36,0.84 -0.6,1.72 -0.2,0.84 -0.4,1.72 0.08,-0.24 0.12,-0.28 h 0.08 q -0.08,0.2 -0.16,0.4 -0.04,0.16 -0.12,0.36 -0.12,0.32 -0.2,0.64 -0.08,0.28 0.08,0.6 0.04,0.16 -0.04,0.68 0.16,-0.16 0.28,-0.28 0.12,-0.12 0.28,-0.24 0.08,0 0.12,0.04 l -0.24,0.6 q 0.04,0 0.08,0.04 0.08,-0.16 0.2,-0.28 0.12,-0.12 0.24,-0.24 0.2,0.08 0.16,0.2 0,0.08 -0.2,0.64 z m 0.12,-10.56 q 0.04,-0.08 0.04,-0.12 0,-0.04 0.04,-0.12 -0.08,0.08 -0.12,0.12 0,0.04 -0.08,0.12 z m 1.16,-0.32 q 0.08,-0.16 0.16,-0.2 -0.04,-0.04 -0.08,-0.04 -0.04,0.04 -0.12,0.2 0.04,0 0,0.04 0,0 0.04,0 z m 4.44,-7.68 q 0.12,0.08 -0.04,0.4 -0.12,0.24 -0.28,0.48 -0.12,0.24 -0.28,0.52 -0.2,0.44 -0.44,0.84 -0.24,0.36 -0.48,0.8 -0.12,0.32 -0.2,0.6 -0.08,0.28 -0.04,0.56 0,0.44 -0.36,0.64 -0.08,0 -0.08,0.12 l -1.08,-0.12 q -0.04,0.04 -0.08,0.04 -0.36,0.32 -0.52,0.36 -0.12,0 -0.28,-0.32 -0.08,-0.08 -0.08,-0.12 0,-0.04 -0.04,-0.08 -0.44,-0.12 -0.44,-0.44 0,-0.36 0,-0.68 0,-0.28 0.04,-0.52 0.08,-0.24 0.16,-0.48 0.2,-0.56 0.4,-1.12 0.24,-0.6 0.48,-1.16 0.24,-0.72 0.84,-1.12 0.12,-0.08 0.2,-0.08 0.12,-0.04 0.2,-0.12 0,0.24 0,0.4 0.04,0.16 -0.04,0.36 -0.08,0.2 -0.2,0.4 -0.08,0.16 -0.2,0.36 0.36,-0.04 0.44,-0.24 0.12,-0.2 0.24,-0.36 0.16,-0.2 0.28,-0.36 0.12,-0.2 0.24,-0.4 0.4,0 0.4,0.36 -0.08,0.36 -0.24,0.72 -0.16,0.32 -0.36,0.64 -0.12,0.2 -0.28,0.4 -0.12,0.2 -0.12,0.4 0.4,-0.56 0.68,-1.12 0.32,-0.6 0.76,-1.16 0.64,0.28 0.36,0.88 -0.04,0.08 -0.04,0.12 0,0.04 -0.08,0.12 0.12,-0.12 0.24,-0.24 0.16,-0.16 0.32,-0.28 z m -3.16,4.36 q 0,0 0.04,0 0.04,0 0.08,-0.04 -0.04,-0.04 -0.04,-0.08 0.04,-0.04 0,-0.08 l -0.16,0.08 q 0,0.12 0.08,0.12 z m 2.6,-3.8 q -0.2,0.32 -0.4,0.64 -0.16,0.28 -0.28,0.6 -0.2,0.32 -0.4,0.64 -0.16,0.32 -0.2,0.64 0.08,-0.08 0.12,-0.12 0.04,-0.04 0.12,-0.12 0.2,-0.44 0.44,-0.88 0.24,-0.48 0.48,-0.92 z m -2.84,7.8 q 0,0.12 -0.16,0.48 -0.12,0.36 -0.32,0.8 -0.2,0.4 -0.44,0.8 -0.2,0.4 -0.36,0.6 0.24,-0.68 0.56,-1.32 0.32,-0.64 0.72,-1.36 z m -2.76,6.48 q 0.08,-0.2 0.08,-0.32 0.04,-0.16 0.12,-0.36 h 0.12 q 0,0.2 -0.12,0.36 -0.08,0.12 -0.2,0.32 z m 5.84,-13.32 q 0.08,-0.2 0.12,-0.36 0.04,-0.16 0.28,-0.2 -0.08,0.12 -0.2,0.28 -0.08,0.12 -0.2,0.28 z m -2.88,6.56 -0.04,-0.04 q 0.04,-0.08 0.08,-0.12 0.04,-0.04 0.04,-0.12 h 0.08 q -0.04,0.08 -0.08,0.16 0,0.04 -0.04,0.12 z m 3.44,-7.56 h 0.08 q -0.08,0.12 -0.12,0.24 -0.04,0.08 -0.12,0.2 0.08,-0.32 0.16,-0.44 z m -5.84,12.88 q 0,0.04 -0.04,0.08 0,0.04 0,0.08 h -0.08 q 0,-0.04 0,-0.08 0.04,-0.04 0.04,-0.08 z" />
      <path
         id="path4684"
         style=""
         d="m 120.79405,224.29977 q -0.04,0.04 0.04,0.04 -0.08,0.2 -0.16,0.36 -0.04,0.16 -0.12,0.32 -0.12,0.24 -0.24,0.48 -0.08,0.24 -0.2,0.44 -0.2,0.32 -0.4,0.52 -0.84,0.84 -1.76,1.6 -0.88,0.76 -1.92,1.36 -0.24,0.16 -0.48,0.28 -0.24,0.12 -0.48,0.16 -0.68,0.12 -1.36,0.28 -0.68,0.12 -1.32,0.08 -1.2,-0.08 -1.96,-0.68 -0.72,-0.64 -1.12,-1.68 -0.24,-0.64 -0.28,-1.32 -0.04,-0.72 0.04,-1.44 0.28,-1.68 0.92,-3.28 0.64,-1.6 1.72,-3.12 0.64,-0.88 1.4,-1.56 0.8,-0.68 1.8,-1.12 1.2,-0.52 2.2,-0.28 1.48,0.24 2.72,1.16 0.08,0.08 0.2,0.2 0.16,0.08 0.24,0.2 0.72,0.72 0.04,1.88 -0.44,0.76 -0.96,1.52 -0.52,0.72 -1.16,1.4 -0.24,0.24 -0.44,0.52 -0.2,0.24 -0.44,0.52 0,0.36 -0.32,0.36 -0.2,0.2 -0.4,0.44 -0.16,0.2 -0.36,0.4 -0.56,0.56 -1.16,1.08 -0.56,0.52 -1.16,1.08 -0.12,0.08 -0.28,0.2 -0.12,0.08 -0.28,0.16 -0.12,0.04 -0.44,0.04 -0.08,0.24 -0.08,0.44 0,0.68 0.36,0.88 0.2,0.12 0.4,0 0.24,-0.12 0.44,-0.24 2.04,-1.04 3.84,-2.84 0.2,-0.2 0.32,-0.4 0.16,-0.2 0.32,-0.4 0.16,-0.16 0.28,-0.28 0.12,-0.12 0.28,-0.2 -0.08,0.36 -0.28,0.72 -0.16,0.32 -0.24,0.68 0.2,-0.2 0.32,-0.36 0.12,-0.2 0.32,-0.4 0.2,-0.16 0.28,-0.36 0.08,-0.2 0.36,-0.32 0.12,0.2 -0.04,0.4 -0.16,0.2 -0.08,0.44 0.16,-0.2 0.28,-0.36 0.16,-0.2 0.28,-0.36 0.24,0.16 0.24,0.28 0.04,0.12 -0.16,0.68 0.08,-0.16 0.2,-0.28 0.12,-0.16 0.24,-0.32 z m -2.76,-2.52 q 0.12,-0.16 0.28,-0.24 0.16,-0.12 0.16,-0.32 -0.36,0.28 -0.44,0.56 z m 1.52,-2.04 q -0.24,0.36 -0.52,0.72 -0.24,0.36 -0.48,0.72 0.44,-0.28 0.64,-0.64 0.24,-0.4 0.48,-0.76 -0.04,-0.04 -0.12,-0.04 z m -0.84,-0.16 q -0.2,0.24 -0.36,0.48 -0.12,0.24 -0.28,0.48 0.08,0 0.12,0.04 0.16,-0.24 0.28,-0.48 0.16,-0.24 0.36,-0.48 -0.04,0 -0.08,0 0,-0.04 -0.04,-0.04 z m -7,0.64 q 1.16,-1.4 2.2,-2.56 -0.08,-0.08 -0.08,-0.08 -0.64,0.32 -1.12,0.92 -0.44,0.6 -1,1.72 z m 1.12,0.28 q 0.32,-0.44 0.56,-0.84 0.28,-0.4 0.56,-0.84 -0.08,0 -0.08,-0.04 -0.72,0.72 -1.16,1.68 0.04,0.04 0.12,0.04 z m 2.28,-1.72 q -0.52,0.44 -0.84,1 -0.32,0.52 -0.52,1.08 0.32,-0.52 0.68,-1.04 0.36,-0.52 0.68,-1.04 z m 0.68,0 q -0.4,0.24 -0.88,0.84 -0.44,0.56 -0.84,1.28 -0.36,0.68 -0.68,1.44 -0.28,0.72 -0.32,1.28 0.44,-1.28 1.08,-2.48 0.64,-1.2 1.64,-2.36 z m -2.56,5.04 q -0.08,0.08 -0.08,0.2 0.04,0.12 0,0.32 0.28,-0.32 0.48,-0.56 0.2,-0.24 0.4,-0.48 0.8,-0.88 1.52,-1.76 0.76,-0.92 1.36,-1.92 0.36,-0.52 0.64,-1.28 0.12,-0.68 -0.56,-0.32 -0.16,0.08 -0.24,0.16 -0.92,0.64 -1.56,1.64 -0.68,0.96 -1.16,1.96 -0.48,1 -0.8,2.04 z m -0.28,1.68 q 0.08,-0.08 0.12,-0.12 0.08,-0.08 0.12,-0.16 0.64,-0.68 1.24,-1.32 0.64,-0.68 1.2,-1.36 0.48,-0.56 0.96,-1.16 0.48,-0.64 0.92,-1.24 0.12,-0.16 0.2,-0.32 0.12,-0.16 0.04,-0.36 -0.24,0.08 -0.32,0.24 -0.08,0.16 -0.2,0.32 -0.32,0.48 -0.64,0.96 -0.32,0.44 -0.68,0.88 -0.68,0.8 -1.36,1.56 -0.68,0.76 -1.36,1.56 -0.08,0.12 -0.2,0.24 -0.08,0.08 -0.04,0.28 z m 6.56,-4.48 q -0.04,0 -0.08,0 0,-0.04 -0.04,-0.04 0.28,-0.44 0.56,-0.88 0.28,-0.48 0.6,-0.96 0.04,0.04 0.08,0.04 -0.28,0.48 -0.56,0.96 -0.28,0.44 -0.56,0.88 z" />
      <path
         id="path4686"
         style=""
         d="m 135.80455,221.41977 q 0.24,0.92 0.72,1.68 0.52,0.72 1,1.52 0.32,-0.2 0.6,-0.36 0.32,-0.16 0.64,-0.32 1.6,-0.92 3.16,-1.8 1.6,-0.88 3.2,-1.76 0.28,-0.16 0.6,-0.16 -0.08,0.12 -0.2,0.28 -0.08,0.12 -0.24,0.28 0.32,0.08 0.52,-0.12 0.24,-0.2 0.56,-0.16 -0.04,0.12 -0.04,0.48 0.16,-0.08 0.32,-0.16 0.16,-0.08 0.4,-0.16 -0.04,0.2 -0.04,0.4 0,0.16 -0.04,0.36 0.08,0 0.12,0 0.08,-0.04 0.16,-0.04 0,0.12 -0.04,0.12 -0.32,0.32 -0.64,0.6 -0.28,0.24 -0.6,0.56 -0.24,0.28 -0.6,0.48 -0.36,0.16 -0.68,0.36 -0.76,0.44 -1.48,0.92 -0.72,0.44 -1.48,0.88 -0.68,0.4 -1.32,0.8 -0.6,0.36 -1.28,0.8 0.04,0.08 0.04,0.2 0.04,0.12 0.12,0.2 0.32,0.48 0.6,1 0.32,0.48 0.68,0.92 0.28,0.32 0.56,0.64 0.28,0.28 0.56,0.6 0.56,0.52 -0.04,1.16 -0.44,-0.08 -0.88,-0.08 -0.44,-0.04 -0.88,-0.12 -0.4,-0.04 -0.72,-0.32 -0.68,-0.56 -1.2,-1.2 -0.52,-0.64 -0.96,-1.44 -0.04,-0.04 -0.08,-0.08 -0.04,-0.04 -0.12,-0.12 -0.2,0.16 -0.44,0.28 -0.24,0.12 -0.48,0.28 -1.04,0.68 -2.04,1.32 -0.96,0.6 -1.96,1.28 -0.84,0.56 -1.72,0.96 -0.84,0.4 -1.76,0.8 -0.56,0.2 -1.04,0.16 -0.44,-0.04 -0.88,-0.12 -0.2,-0.04 -0.44,-0.04 -0.2,-0.04 -0.44,-0.04 -0.88,0 -1.2,-0.6 0,-0.12 -0.08,-0.2 -0.4,-0.36 -0.36,-0.84 0.04,-0.48 0.28,-1.04 0.28,-0.48 0.56,-0.96 0.28,-0.48 0.6,-0.92 0.8,-1.16 1.76,-2.24 0.96,-1.08 1.96,-2.12 0.68,-0.68 1.36,-1.32 0.72,-0.68 1.4,-1.36 0.12,-0.12 0.36,-0.44 -0.08,-0.32 -0.2,-0.68 -0.12,-0.36 -0.2,-0.72 -0.32,-1.24 -0.08,-2.84 0.32,-1.28 1.08,-2.28 0.76,-1.04 1.92,-1.88 0.76,-0.56 1.56,-0.88 0.84,-0.36 1.68,-0.44 0.6,-0.08 1.08,0.04 0.68,0.16 1.2,0.44 0.52,0.24 0.96,0.72 0.52,0.64 0.52,1.24 0.04,0.56 -0.56,1.44 -0.48,0.68 -1,1.32 -0.52,0.64 -1.08,1.28 -0.8,0.92 -1.64,1.8 -0.84,0.84 -1.68,1.76 z m -7.04,5.52 q 0.28,-0.2 0.32,-0.28 0.04,-0.08 0.12,-0.36 -0.4,0.32 -0.44,0.68 -0.28,0.08 -0.4,0.24 -0.12,0.16 -0.2,0.36 -0.44,0.4 -0.76,0.88 -0.32,0.48 -0.6,1 0.36,-0.48 0.68,-0.92 0.36,-0.48 0.72,-0.92 0.16,-0.2 0.28,-0.32 0.12,-0.16 0.28,-0.36 z m 3.56,-2.56 q 0.52,-0.4 0.8,-0.84 -0.28,0.12 -0.52,0.36 -0.12,0.12 -0.36,0.44 -0.12,0.08 -0.24,0.2 -0.12,0.12 -0.12,0.32 0.12,-0.12 0.2,-0.24 0.12,-0.12 0.24,-0.24 z m -2.76,2.8 q -0.64,0.56 -1.16,1.28 -0.48,0.68 -0.68,1.12 0.52,-0.6 0.96,-1.16 0.48,-0.6 0.92,-1.16 0.44,-0.48 0.92,-0.92 0.48,-0.48 0.8,-1.04 -0.48,0.44 -0.96,0.88 -0.44,0.44 -0.8,1 z m 7,-6.96 q 0.68,-0.68 1.36,-1.4 0.68,-0.72 1.36,-1.44 0.36,-0.36 0.44,-0.48 0.08,-0.16 0.2,-0.52 -0.2,0.32 -0.4,0.52 -0.16,0.2 -0.28,0.4 l -1.88,1.88 q -0.2,0.24 -0.44,0.52 -0.24,0.24 -0.44,0.48 -0.6,0.24 -0.72,0.92 0.2,-0.2 0.4,-0.4 0.2,-0.24 0.4,-0.48 z m -8.56,9.56 q 1,-0.32 1.84,-0.8 0.84,-0.52 1.72,-1 0.92,-0.48 1.84,-0.96 0.92,-0.52 1.84,-1.08 -0.44,-0.64 -0.84,-1.2 -0.4,-0.6 -0.84,-1.16 -0.68,0.56 -1.56,1.48 -0.88,0.88 -1.72,1.8 -0.8,0.92 -1.44,1.72 -0.64,0.8 -0.84,1.2 z m 10.72,-16 q -0.04,0.04 -0.32,0.16 -0.28,0.08 -0.6,0.24 -0.4,0.16 -0.92,0.4 -0.48,0.28 -0.84,0.76 -0.36,0.48 -0.6,1.04 -0.24,0.52 -0.32,1.04 -0.08,0.48 0,0.8 0.44,-0.32 1.04,-0.92 0.6,-0.6 1.12,-1.24 0.56,-0.68 0.96,-1.28 0.4,-0.64 0.48,-1 z m -6.2,8.04 q -0.2,0 -0.32,0.12 -0.12,0.12 -0.24,0.24 l -1.36,1.36 q -1.08,1.08 -2.16,2.2 -1.04,1.08 -1.96,2.24 -0.16,0.2 -0.28,0.44 -0.12,0.2 -0.28,0.4 0.04,0.04 0.04,0.04 0.04,0 0.08,0.04 0.24,-0.24 0.36,-0.4 0.44,-0.48 0.88,-1 0.44,-0.52 0.88,-1 1,-1.04 2,-2.04 1,-1.04 2,-2.08 0.16,-0.12 0.28,-0.24 0.12,-0.12 0.08,-0.32 z m 2.56,-2.48 q 0.4,-0.2 0.96,-0.72 0.56,-0.56 1.08,-1.16 0.56,-0.64 0.96,-1.2 0.44,-0.6 0.52,-0.92 -0.08,0.08 -0.16,0.12 -0.04,0 -0.12,0.08 -0.72,0.8 -1.44,1.6 -0.72,0.8 -1.44,1.6 -0.08,0.12 -0.16,0.28 -0.08,0.12 -0.2,0.32 z m 0.36,-6.12 -0.12,-0.12 q -0.64,0.44 -1.2,0.92 -0.52,0.44 -0.76,1.24 0.56,-0.52 1.04,-1 0.48,-0.52 1.04,-1.04 z m 4.12,2.4 q -0.76,0.84 -1.52,1.68 -0.72,0.8 -1.44,1.64 0.28,-0.16 0.72,-0.56 0.44,-0.44 0.88,-0.92 0.44,-0.52 0.8,-1 0.4,-0.52 0.56,-0.84 z m -3.12,-1.16 q -0.48,0.28 -0.72,0.56 -0.2,0.24 -0.28,0.64 0.24,-0.28 0.44,-0.52 0.24,-0.24 0.44,-0.48 0.04,-0.04 0.12,-0.2 z m -2.16,0.92 q 0.04,0.04 0.08,0.08 0.04,0 0.08,0.04 0.16,-0.2 0.32,-0.4 0.16,-0.24 0.32,-0.44 -0.04,0 -0.08,0 0,-0.04 -0.04,-0.04 -0.16,0.2 -0.32,0.4 -0.16,0.16 -0.36,0.36 z m 1.88,4.16 q -0.08,-0.08 -0.12,-0.08 -0.24,0.24 -0.32,0.36 0,0.04 0.04,0.08 0.08,-0.08 0.2,-0.16 0.12,-0.12 0.2,-0.2 z" />
      <path
         id="path4688"
         style=""
         d="m 169.48756,226.69977 q -0.4,0.36 -0.76,0.72 -0.36,0.32 -0.72,0.64 -0.24,0.24 0,0.32 -0.32,0.32 -0.68,0.64 -0.32,0.32 -0.64,0.6 -1.04,0.8 -2.12,1.56 -1.08,0.76 -2.24,1.4 -1.28,0.72 -2.56,1.28 -1.28,0.56 -2.64,0.92 -0.48,0.16 -0.8,0.4 -0.28,0.24 -0.4,0.76 -0.08,0.2 -0.24,0.36 -0.16,0.2 -0.28,0.4 -0.08,-0.2 -0.24,-0.24 -0.12,0 -0.32,0 -0.16,0.04 -0.32,0.04 -0.12,0 -0.2,-0.16 l -0.36,0.36 q -0.48,0.44 -0.72,0.04 -0.04,-0.12 -0.08,-0.24 0,-0.08 -0.24,0.04 -0.08,0.04 -0.16,-0.12 -0.08,-0.12 -0.12,-0.2 -0.12,-0.44 -0.56,-0.44 -0.08,0 -0.16,-0.04 -0.04,-0.04 -0.12,-0.04 -0.16,-0.04 -0.32,-0.08 -0.16,-0.08 -0.36,0.24 0,0.08 -0.12,0.08 -0.68,0.08 -1.32,0.12 -0.6,0.04 -1.24,0.08 -0.2,0 -0.4,-0.04 -0.24,-0.04 -0.44,-0.12 -0.08,-0.08 -0.16,-0.2 -0.12,-0.12 0.2,-0.32 -0.12,-0.08 -0.16,-0.08 -0.04,-0.04 -0.12,-0.04 -0.76,-0.2 -0.2,-0.96 0.28,-0.32 0.52,-0.48 0.24,-0.2 0.64,-0.32 0.08,0.12 0.08,0.4 1.08,-0.2 2.16,-0.44 1.08,-0.28 2.2,-0.72 0.24,-0.08 0.32,-0.24 0.08,-0.2 0.16,-0.4 0.24,-1.08 0.48,-2.12 0.28,-1.08 0.6,-2.16 0.72,-2.64 1.48,-5.24 0.76,-2.6 1.56,-5.24 0.16,-0.48 0.32,-0.96 0.2,-0.52 0.4,-1.04 l 0.28,-0.84 q -2.2,0.92 -4.2,2.16 -1.96,1.24 -3.88,2.68 0.08,-0.2 0.08,-0.32 0.04,-0.12 0.12,-0.32 -0.44,0.44 -0.6,0.48 -0.12,0.04 -0.52,-0.12 -0.44,0.36 -0.52,0.36 -0.12,0 -0.36,-0.36 -0.12,-0.12 -0.08,-0.12 -0.52,-0.08 -0.4,-0.4 0.08,-0.32 0.2,-0.64 0.24,-0.56 0.6,-1.04 0.36,-0.48 0.8,-0.92 1.12,-1.16 2.36,-2.04 1.28,-0.92 2.68,-1.72 1.96,-1.08 3.92,-1.88 2,-0.84 4.08,-1.32 1.6,-0.4 3.16,-0.64 1.6,-0.24 3.12,-0.04 2.16,0.28 3.92,1.08 1.8,0.8 3.04,2.44 0.48,0.68 0.68,1.48 0.2,0.76 0,1.72 -0.4,2.56 -1.96,5 -1.12,1.76 -2.4,3.44 -1.24,1.64 -2.72,3.16 z m -20.84,-8.16 q 0.52,-0.36 0.8,-0.8 0.32,-0.48 0.6,-0.92 -0.44,0.32 -0.84,0.72 -0.36,0.4 -0.56,1 z m 21.12,5.32 q 0,0.04 0.08,0.12 0.12,-0.16 0.28,-0.28 -0.24,0.12 -0.36,0.16 z m 4.44,-3.88 q -1,1.28 -1.96,2.52 -0.92,1.24 -1.84,2.52 1.12,-1.16 2.12,-2.4 1,-1.24 1.68,-2.64 z m -1.52,-0.12 q -0.04,0.08 -0.08,0.12 -0.04,0.04 -0.08,0.12 -0.52,0.76 -1.04,1.48 -0.48,0.72 -1,1.48 -0.08,0.16 -0.16,0.28 -0.08,0.12 -0.16,0.28 0.4,-0.44 0.8,-0.88 0.4,-0.48 0.76,-0.92 0.4,-0.52 0.64,-0.84 0.24,-0.36 0.36,-0.56 0.12,-0.2 0.16,-0.32 0.04,-0.16 0.04,-0.32 -0.08,0.04 -0.12,0.04 -0.04,0 -0.12,0.04 z m -14.04,10.44 q 4.4,-2.36 8.04,-6.08 1.32,-1.4 2.52,-2.84 1.2,-1.48 2.04,-3.16 0.44,-0.88 0.76,-1.76 0.32,-0.88 0.4,-1.8 0.32,-2.48 -1.84,-3.12 -0.24,-0.08 -0.52,-0.12 -0.28,-0.04 -0.56,-0.08 -0.92,-0.08 -1.92,0.12 -0.96,0.16 -1.92,0.4 -0.48,0.12 -0.76,0.2 -0.28,0.08 -0.44,0.24 -0.16,0.16 -0.28,0.44 -0.12,0.24 -0.32,0.72 -0.24,0.68 -0.52,1.32 -0.24,0.6 -0.52,1.24 0.08,-0.88 0.48,-1.72 0.4,-0.84 0.6,-1.68 -2,4.52 -3.72,9.04 -1.68,4.48 -2.96,9.08 h 0.16 q 0.12,-0.28 0.2,-0.56 0.12,-0.28 0.2,-0.6 h 0.04 q -0.12,0.64 -0.28,1.2 0.28,-0.04 0.4,-0.12 0.4,-0.16 0.72,-0.36 z m 10.2,-6.68 q 0.64,-0.8 1.24,-1.6 0.6,-0.84 1.28,-1.64 0.32,-0.44 0.48,-0.76 0.16,-0.36 -0.04,-0.8 -0.8,1.12 -1.56,2.24 -0.76,1.12 -1.64,2.16 -0.88,1.08 -1.88,2.08 -0.96,0.96 -1.92,2 0.08,-0.04 0.16,-0.08 0.08,-0.04 0.16,-0.12 2.08,-1.56 3.72,-3.48 z m 0.96,3.16 q -0.08,0.08 -0.12,0.16 l -0.04,-0.04 q 0.04,-0.04 0.08,-0.04 0.04,-0.04 0.08,-0.08 z m 1.52,-1.76 q -0.08,0.32 -0.2,0.44 -0.32,0.36 -0.68,0.68 -0.32,0.32 -0.64,0.64 l 0.72,-0.84 q 0.2,-0.24 0.4,-0.44 0.2,-0.24 0.4,-0.48 z m 0.04,-0.04 -0.04,0.04 v -0.04 z m -3.32,3.44 -0.04,-0.04 h 0.04 z m 1.64,-1.48 h -0.04 v -0.04 z m -0.04,0 q -0.32,0.44 -0.72,0.8 -0.36,0.36 -0.88,0.64 0.28,-0.36 0.76,-0.8 0.48,-0.44 0.84,-0.64 z m 3.76,-4.32 v -0.04 z m 0,0 q -0.4,0.8 -1,1.24 0.2,-0.32 0.4,-0.64 0.2,-0.32 0.6,-0.6 z m -1,1.24 q -0.04,0.04 -0.08,0.04 z m -0.08,0.12 q -0.2,0.32 -0.4,0.6 -0.16,0.24 -0.56,0.4 0.24,-0.28 0.48,-0.52 0.24,-0.24 0.48,-0.48 z m 0,0 v -0.08 z m -0.96,1 h -0.04 z m 2.04,-2.36 v -0.04 z m 0.08,-0.28 q 0.12,-0.12 0.28,-0.16 -0.08,0.08 -0.2,0.2 -0.08,0.12 -0.16,0.2 0.04,-0.08 0.04,-0.12 0,-0.04 0.04,-0.12 z m -13.68,0.92 q 0.4,-1.04 0.76,-2.04 0.4,-1 0.84,-2.04 0.08,0 0.16,0.04 -0.44,1.04 -0.84,2.04 -0.4,1 -0.8,2.04 -0.04,-0.04 -0.12,-0.04 z m -0.96,2.72 q 0.2,-0.52 0.36,-1.04 0.2,-0.52 0.36,-1.04 h 0.16 q -0.2,0.48 -0.36,1 -0.16,0.48 -0.32,0.96 -0.04,0.04 -0.2,0.12 z m -0.16,0.92 q -0.08,0.48 -0.32,1 0.12,-0.48 0.24,-0.96 0.12,-0.48 0.24,-0.92 -0.04,0.2 -0.08,0.44 0,0.24 -0.08,0.44 z m 0.16,-0.88 v -0.04 z m 2.8,-7.36 q 0.08,-0.24 0.12,-0.4 0.04,-0.2 0.08,-0.36 0.2,0.24 -0.2,0.76 z m 0.44,-1.32 q 0.12,-0.2 0.2,-0.4 h 0.12 q -0.08,0.12 -0.12,0.24 0,0.08 -0.08,0.16 z m -4.08,11.44 q 0.04,-0.04 0.04,-0.04 0.04,0 0.08,-0.04 v 0.12 q -0.04,0 -0.04,0.04 0,0 -0.04,0 -0.12,0 -0.04,-0.08 z" />
      <path
         id="path4690"
         style=""
         d="m 176.61093,228.65977 q 0.2,-0.16 0.28,-0.28 0.12,-0.12 0.2,-0.24 0.04,0.04 0.08,0.04 -0.12,0.16 -0.2,0.32 -0.08,0.16 -0.2,0.32 -0.04,0.08 -0.12,0.16 -0.04,0.04 -0.08,0.12 0,0.28 -0.2,0.4 -0.16,0.12 -0.32,0.24 -0.2,0.16 -0.36,0.16 -0.16,0 -0.36,0 -0.16,0 -0.32,0 -0.16,0 -0.32,0.04 -0.32,0.08 -0.52,0.04 -0.16,-0.08 -0.36,-0.2 -0.4,-0.32 -0.6,-0.72 -0.2,-0.44 -0.28,-0.96 -0.32,-2.76 0.84,-5.64 0.32,-0.84 0.68,-1.68 0.4,-0.84 0.8,-1.68 0.28,-0.52 0.64,-1 0.36,-0.52 0.68,-1.04 0.16,-0.24 0.36,-0.44 0.24,-0.24 0.56,-0.32 0.16,0.16 0.08,0.32 -0.04,0.16 -0.04,0.36 -0.08,0.16 -0.16,0.16 -0.32,0.08 -0.4,0.28 -0.08,0.16 -0.16,0.36 0.68,-0.48 1.04,-1 0.08,-0.16 0.2,-0.24 0.16,-0.12 0.36,-0.04 -0.08,0.2 -0.12,0.48 0.12,-0.08 0.24,-0.16 0.12,-0.08 0.24,-0.16 0.2,0.08 0.2,0.28 0,0.16 0.08,0.36 h 0.2 v 0.12 q -0.2,0.44 -0.44,0.88 -0.2,0.44 -0.4,0.88 -0.4,0.8 -0.8,1.6 -0.36,0.76 -0.68,1.56 -0.36,0.84 -0.6,1.72 -0.2,0.84 -0.4,1.72 0.08,-0.24 0.12,-0.28 h 0.08 q -0.08,0.2 -0.16,0.4 -0.04,0.16 -0.12,0.36 -0.12,0.32 -0.2,0.64 -0.08,0.28 0.08,0.6 0.04,0.16 -0.04,0.68 0.16,-0.16 0.28,-0.28 0.12,-0.12 0.28,-0.24 0.08,0 0.12,0.04 l -0.24,0.6 q 0.04,0 0.08,0.04 0.08,-0.16 0.2,-0.28 0.12,-0.12 0.24,-0.24 0.2,0.08 0.16,0.2 0,0.08 -0.2,0.64 z m 0.12,-10.56 q 0.04,-0.08 0.04,-0.12 0,-0.04 0.04,-0.12 -0.08,0.08 -0.12,0.12 0,0.04 -0.08,0.12 z m 1.16,-0.32 q 0.08,-0.16 0.16,-0.2 -0.04,-0.04 -0.08,-0.04 -0.04,0.04 -0.12,0.2 0.04,0 0,0.04 0,0 0.04,0 z m 4.44,-7.68 q 0.12,0.08 -0.04,0.4 -0.12,0.24 -0.28,0.48 -0.12,0.24 -0.28,0.52 -0.2,0.44 -0.44,0.84 -0.24,0.36 -0.48,0.8 -0.12,0.32 -0.2,0.6 -0.08,0.28 -0.04,0.56 0,0.44 -0.36,0.64 -0.08,0 -0.08,0.12 l -1.08,-0.12 q -0.04,0.04 -0.08,0.04 -0.36,0.32 -0.52,0.36 -0.12,0 -0.28,-0.32 -0.08,-0.08 -0.08,-0.12 0,-0.04 -0.04,-0.08 -0.44,-0.12 -0.44,-0.44 0,-0.36 0,-0.68 0,-0.28 0.04,-0.52 0.08,-0.24 0.16,-0.48 0.2,-0.56 0.4,-1.12 0.24,-0.6 0.48,-1.16 0.24,-0.72 0.84,-1.12 0.12,-0.08 0.2,-0.08 0.12,-0.04 0.2,-0.12 0,0.24 0,0.4 0.04,0.16 -0.04,0.36 -0.08,0.2 -0.2,0.4 -0.08,0.16 -0.2,0.36 0.36,-0.04 0.44,-0.24 0.12,-0.2 0.24,-0.36 0.16,-0.2 0.28,-0.36 0.12,-0.2 0.24,-0.4 0.4,0 0.4,0.36 -0.08,0.36 -0.24,0.72 -0.16,0.32 -0.36,0.64 -0.12,0.2 -0.28,0.4 -0.12,0.2 -0.12,0.4 0.4,-0.56 0.68,-1.12 0.32,-0.6 0.76,-1.16 0.64,0.28 0.36,0.88 -0.04,0.08 -0.04,0.12 0,0.04 -0.08,0.12 0.12,-0.12 0.24,-0.24 0.16,-0.16 0.32,-0.28 z m -3.16,4.36 q 0,0 0.04,0 0.04,0 0.08,-0.04 -0.04,-0.04 -0.04,-0.08 0.04,-0.04 0,-0.08 l -0.16,0.08 q 0,0.12 0.08,0.12 z m 2.6,-3.8 q -0.2,0.32 -0.4,0.64 -0.16,0.28 -0.28,0.6 -0.2,0.32 -0.4,0.64 -0.16,0.32 -0.2,0.64 0.08,-0.08 0.12,-0.12 0.04,-0.04 0.12,-0.12 0.2,-0.44 0.44,-0.88 0.24,-0.48 0.48,-0.92 z m -2.84,7.8 q 0,0.12 -0.16,0.48 -0.12,0.36 -0.32,0.8 -0.2,0.4 -0.44,0.8 -0.2,0.4 -0.36,0.6 0.24,-0.68 0.56,-1.32 0.32,-0.64 0.72,-1.36 z m -2.76,6.48 q 0.08,-0.2 0.08,-0.32 0.04,-0.16 0.12,-0.36 h 0.12 q 0,0.2 -0.12,0.36 -0.08,0.12 -0.2,0.32 z m 5.84,-13.32 q 0.08,-0.2 0.12,-0.36 0.04,-0.16 0.28,-0.2 -0.08,0.12 -0.2,0.28 -0.08,0.12 -0.2,0.28 z m -2.88,6.56 -0.04,-0.04 q 0.04,-0.08 0.08,-0.12 0.04,-0.04 0.04,-0.12 h 0.08 q -0.04,0.08 -0.08,0.16 0,0.04 -0.04,0.12 z m 3.44,-7.56 h 0.08 q -0.08,0.12 -0.12,0.24 -0.04,0.08 -0.12,0.2 0.08,-0.32 0.16,-0.44 z m -5.84,12.88 q 0,0.04 -0.04,0.08 0,0.04 0,0.08 h -0.08 q 0,-0.04 0,-0.08 0.04,-0.04 0.04,-0.08 z" />
      <path
         id="path4692"
         style=""
         d="m 178.85556,229.45977 q -0.16,0.32 -0.44,0.52 -0.24,0.16 -0.6,0.36 0.12,-0.36 0.12,-0.48 -0.44,0 -0.52,-0.08 -0.04,-0.08 -0.08,-0.52 -0.12,0.16 -0.2,0.28 -0.08,0.08 -0.16,0.16 -0.16,0.24 -0.4,0.24 -0.32,0 -0.16,-0.36 0.04,-0.12 0.08,-0.28 0.04,-0.16 0.12,-0.36 -0.32,0.28 -0.44,0.44 -0.2,-0.12 -0.2,-0.28 0.04,-0.16 0.12,-0.32 0.12,-0.48 0.48,-0.76 0.64,-0.76 1.28,-1.48 0.68,-0.76 1.36,-1.48 0.56,-0.64 1.12,-1.24 0.6,-0.6 1.16,-1.24 -0.04,-0.08 -0.12,-0.32 -0.32,-0.92 -0.6,-1.76 -0.24,-0.88 -0.56,-1.76 -0.12,-0.32 -0.28,-0.6 -0.16,-0.28 -0.32,-0.6 -0.4,-0.52 0.12,-1 0.68,-0.64 1.2,-0.24 0.16,0.08 0.24,0.08 0.64,0.04 1,0.36 0.4,0.32 0.72,0.72 0.4,0.44 0.6,1 0.2,0.56 0.32,1.2 0,0.24 0.08,0.32 -0.04,0.04 0.04,0.08 0.12,-0.08 0.24,-0.2 0.16,-0.12 0.28,-0.2 0.92,-0.84 1.84,-1.64 0.96,-0.84 1.96,-1.64 0.16,-0.16 0.32,-0.28 0.2,-0.16 0.4,-0.28 0.16,-0.08 0.28,-0.12 0.16,-0.04 0.36,-0.12 0.04,0.04 0.04,0.08 -0.08,0.16 -0.12,0.32 -0.04,0.12 -0.16,0.24 -0.36,0.4 -0.96,0.88 -1.04,0.8 -2.04,1.72 -1,0.88 -2,1.8 -0.16,0.2 -0.2,0.28 0,0.04 0,0.28 0.24,-0.16 0.32,-0.28 1.08,-0.96 2.16,-1.88 1.08,-0.96 2.12,-1.92 0.32,-0.28 0.6,-0.56 0.28,-0.28 0.68,-0.48 0.2,-0.08 0.32,-0.12 0.12,-0.08 0.24,0.12 -0.04,0.12 -0.12,0.28 -0.04,0.12 -0.12,0.32 0.2,-0.12 0.32,-0.2 0.12,-0.08 0.32,-0.16 0.12,0.2 0.16,0.44 0.08,0.2 -0.12,0.52 0.08,-0.08 0.2,-0.12 0.16,-0.08 0.36,-0.24 -0.12,0.36 -0.24,0.44 -0.4,0.4 -0.8,0.8 -0.36,0.4 -0.8,0.8 -1.16,1.04 -2.28,2.04 -1.08,0.96 -2.2,1.96 -0.12,0.12 -0.24,0.24 -0.12,0.12 -0.24,0.2 0.08,0.56 0.24,1.04 0.16,0.44 0.36,0.88 0.4,1 0.8,1.96 0.44,0.96 1.04,1.88 0.08,0.08 0.08,0.16 0,0.04 0.04,0.12 0.08,0.16 0,0.28 -0.08,0.08 -0.16,0.2 -0.2,0.2 -0.48,0.12 -0.08,-0.08 -0.16,-0.12 -0.08,-0.04 -0.16,-0.08 -0.32,-0.08 -0.44,0 -0.48,0.2 -0.68,-0.16 -0.36,-0.52 -0.76,-1.04 -0.36,-0.52 -0.68,-1.08 -0.28,-0.44 -0.52,-0.88 -0.2,-0.48 -0.48,-0.96 -0.32,0.16 -0.44,0.24 0.08,-0.12 0.2,-0.24 0.16,-0.12 0.08,-0.36 -1.04,1.04 -2.04,2 -1,0.96 -1.96,2 -0.08,0.08 -0.08,0.16 0,0.04 -0.08,0.16 0.16,-0.12 0.32,-0.2 z m 2.48,-3.28 q -0.04,0.04 -0.08,0.08 -0.04,0 -0.08,0.04 -0.68,0.68 -1.36,1.36 -0.64,0.68 -1.32,1.36 -0.08,0.08 -0.08,0.16 0,0.08 -0.08,0.2 0.12,-0.12 0.2,-0.16 0.56,-0.56 1.08,-1.12 0.56,-0.6 1.12,-1.16 0.2,-0.2 0.32,-0.36 0.12,-0.16 0.32,-0.36 0.32,-0.24 0.6,-0.48 0.28,-0.28 0.48,-0.6 0,-0.04 -0.04,-0.04 0,0 0,-0.04 -0.28,0.32 -0.56,0.6 -0.28,0.24 -0.52,0.52 z m -4.36,2.4 q 0.2,-0.16 0.28,-0.28 0.12,-0.12 0.24,-0.2 0.8,-0.88 1.6,-1.72 0.84,-0.88 1.64,-1.72 l 1,-1 q 0.24,-0.24 0,-0.36 -0.08,0.08 -0.24,0.2 -0.12,0.08 -0.2,0.2 -0.48,0.48 -0.96,1 -0.44,0.48 -0.92,0.96 -0.52,0.56 -1.04,1.08 -0.52,0.52 -1.04,1.08 -0.12,0.16 -0.28,0.32 -0.12,0.16 -0.08,0.44 z m 1.76,-0.72 q -0.88,0.48 -0.92,1.04 0.24,-0.28 0.48,-0.52 0.24,-0.28 0.44,-0.52 z m 7.68,-6.4 q 0,-0.04 -0.04,-0.04 0,0 0,-0.04 -0.12,0.12 -0.24,0.24 -0.12,0.08 -0.2,0.16 0.08,-0.08 0.2,-0.16 0.16,-0.08 0.28,-0.16 z m 0.28,-0.36 q 0.24,-0.16 0.28,-0.2 0.08,-0.08 0.2,-0.28 z m 3.48,-3.12 q 0,0.04 0,0.04 0.04,0 0.04,0.04 0.08,-0.08 0.12,-0.12 0.08,-0.08 0.16,-0.16 0,-0.04 -0.04,-0.04 -0.12,0.08 -0.28,0.24 z m -1.84,1.72 q 0,0 -0.04,-0.08 -0.04,0.04 -0.08,0.08 -0.04,0 -0.08,0.08 0.12,0 0.04,0.08 0.08,-0.04 0.08,-0.08 0.04,-0.04 0.08,-0.08 z m -3.16,2.72 q 0,0 0.08,0.08 0.12,-0.12 0.2,-0.16 -0.04,-0.04 -0.04,-0.12 -0.12,0.08 -0.24,0.2 z" />
      <path
         id="path4694"
         style=""
         d="m 192.12206,228.65977 q 0.2,-0.16 0.28,-0.28 0.12,-0.12 0.2,-0.24 0.04,0.04 0.08,0.04 -0.12,0.16 -0.2,0.32 -0.08,0.16 -0.2,0.32 -0.04,0.08 -0.12,0.16 -0.04,0.04 -0.08,0.12 0,0.28 -0.2,0.4 -0.16,0.12 -0.32,0.24 -0.2,0.16 -0.36,0.16 -0.16,0 -0.36,0 -0.16,0 -0.32,0 -0.16,0 -0.32,0.04 -0.32,0.08 -0.52,0.04 -0.16,-0.08 -0.36,-0.2 -0.4,-0.32 -0.6,-0.72 -0.2,-0.44 -0.28,-0.96 -0.32,-2.76 0.84,-5.64 0.32,-0.84 0.68,-1.68 0.4,-0.84 0.8,-1.68 0.28,-0.52 0.64,-1 0.36,-0.52 0.68,-1.04 0.16,-0.24 0.36,-0.44 0.24,-0.24 0.56,-0.32 0.16,0.16 0.08,0.32 -0.04,0.16 -0.04,0.36 -0.08,0.16 -0.16,0.16 -0.32,0.08 -0.4,0.28 -0.08,0.16 -0.16,0.36 0.68,-0.48 1.04,-1 0.08,-0.16 0.2,-0.24 0.16,-0.12 0.36,-0.04 -0.08,0.2 -0.12,0.48 0.12,-0.08 0.24,-0.16 0.12,-0.08 0.24,-0.16 0.2,0.08 0.2,0.28 0,0.16 0.08,0.36 h 0.2 v 0.12 q -0.2,0.44 -0.44,0.88 -0.2,0.44 -0.4,0.88 -0.4,0.8 -0.8,1.6 -0.36,0.76 -0.68,1.56 -0.36,0.84 -0.6,1.72 -0.2,0.84 -0.4,1.72 0.08,-0.24 0.12,-0.28 h 0.08 q -0.08,0.2 -0.16,0.4 -0.04,0.16 -0.12,0.36 -0.12,0.32 -0.2,0.64 -0.08,0.28 0.08,0.6 0.04,0.16 -0.04,0.68 0.16,-0.16 0.28,-0.28 0.12,-0.12 0.28,-0.24 0.08,0 0.12,0.04 l -0.24,0.6 q 0.04,0 0.08,0.04 0.08,-0.16 0.2,-0.28 0.12,-0.12 0.24,-0.24 0.2,0.08 0.16,0.2 0,0.08 -0.2,0.64 z m 0.12,-10.56 q 0.04,-0.08 0.04,-0.12 0,-0.04 0.04,-0.12 -0.08,0.08 -0.12,0.12 0,0.04 -0.08,0.12 z m 1.16,-0.32 q 0.08,-0.16 0.16,-0.2 -0.04,-0.04 -0.08,-0.04 -0.04,0.04 -0.12,0.2 0.04,0 0,0.04 0,0 0.04,0 z m 4.44,-7.68 q 0.12,0.08 -0.04,0.4 -0.12,0.24 -0.28,0.48 -0.12,0.24 -0.28,0.52 -0.2,0.44 -0.44,0.84 -0.24,0.36 -0.48,0.8 -0.12,0.32 -0.2,0.6 -0.08,0.28 -0.04,0.56 0,0.44 -0.36,0.64 -0.08,0 -0.08,0.12 l -1.08,-0.12 q -0.04,0.04 -0.08,0.04 -0.36,0.32 -0.52,0.36 -0.12,0 -0.28,-0.32 -0.08,-0.08 -0.08,-0.12 0,-0.04 -0.04,-0.08 -0.44,-0.12 -0.44,-0.44 0,-0.36 0,-0.68 0,-0.28 0.04,-0.52 0.08,-0.24 0.16,-0.48 0.2,-0.56 0.4,-1.12 0.24,-0.6 0.48,-1.16 0.24,-0.72 0.84,-1.12 0.12,-0.08 0.2,-0.08 0.12,-0.04 0.2,-0.12 0,0.24 0,0.4 0.04,0.16 -0.04,0.36 -0.08,0.2 -0.2,0.4 -0.08,0.16 -0.2,0.36 0.36,-0.04 0.44,-0.24 0.12,-0.2 0.24,-0.36 0.16,-0.2 0.28,-0.36 0.12,-0.2 0.24,-0.4 0.4,0 0.4,0.36 -0.08,0.36 -0.24,0.72 -0.16,0.32 -0.36,0.64 -0.12,0.2 -0.28,0.4 -0.12,0.2 -0.12,0.4 0.4,-0.56 0.68,-1.12 0.32,-0.6 0.76,-1.16 0.64,0.28 0.36,0.88 -0.04,0.08 -0.04,0.12 0,0.04 -0.08,0.12 0.12,-0.12 0.24,-0.24 0.16,-0.16 0.32,-0.28 z m -3.16,4.36 q 0,0 0.04,0 0.04,0 0.08,-0.04 -0.04,-0.04 -0.04,-0.08 0.04,-0.04 0,-0.08 l -0.16,0.08 q 0,0.12 0.08,0.12 z m 2.6,-3.8 q -0.2,0.32 -0.4,0.64 -0.16,0.28 -0.28,0.6 -0.2,0.32 -0.4,0.64 -0.16,0.32 -0.2,0.64 0.08,-0.08 0.12,-0.12 0.04,-0.04 0.12,-0.12 0.2,-0.44 0.44,-0.88 0.24,-0.48 0.48,-0.92 z m -2.84,7.8 q 0,0.12 -0.16,0.48 -0.12,0.36 -0.32,0.8 -0.2,0.4 -0.44,0.8 -0.2,0.4 -0.36,0.6 0.24,-0.68 0.56,-1.32 0.32,-0.64 0.72,-1.36 z m -2.76,6.48 q 0.08,-0.2 0.08,-0.32 0.04,-0.16 0.12,-0.36 h 0.12 q 0,0.2 -0.12,0.36 -0.08,0.12 -0.2,0.32 z m 5.84,-13.32 q 0.08,-0.2 0.12,-0.36 0.04,-0.16 0.28,-0.2 -0.08,0.12 -0.2,0.28 -0.08,0.12 -0.2,0.28 z m -2.88,6.56 -0.04,-0.04 q 0.04,-0.08 0.08,-0.12 0.04,-0.04 0.04,-0.12 h 0.08 q -0.04,0.08 -0.08,0.16 0,0.04 -0.04,0.12 z m 3.44,-7.56 h 0.08 q -0.08,0.12 -0.12,0.24 -0.04,0.08 -0.12,0.2 0.08,-0.32 0.16,-0.44 z m -5.84,12.88 q 0,0.04 -0.04,0.08 0,0.04 0,0.08 h -0.08 q 0,-0.04 0,-0.08 0.04,-0.04 0.04,-0.08 z" />
      <path
         id="path4696"
         style=""
         d="m 204.16669,224.29977 q -0.04,0.04 0.04,0.04 -0.08,0.2 -0.16,0.36 -0.04,0.16 -0.12,0.32 -0.12,0.24 -0.24,0.48 -0.08,0.24 -0.2,0.44 -0.2,0.32 -0.4,0.52 -0.84,0.84 -1.76,1.6 -0.88,0.76 -1.92,1.36 -0.24,0.16 -0.48,0.28 -0.24,0.12 -0.48,0.16 -0.68,0.12 -1.36,0.28 -0.68,0.12 -1.32,0.08 -1.2,-0.08 -1.96,-0.68 -0.72,-0.64 -1.12,-1.68 -0.24,-0.64 -0.28,-1.32 -0.04,-0.72 0.04,-1.44 0.28,-1.68 0.92,-3.28 0.64,-1.6 1.72,-3.12 0.64,-0.88 1.4,-1.56 0.8,-0.68 1.8,-1.12 1.2,-0.52 2.2,-0.28 1.48,0.24 2.72,1.16 0.08,0.08 0.2,0.2 0.16,0.08 0.24,0.2 0.72,0.72 0.04,1.88 -0.44,0.76 -0.96,1.52 -0.52,0.72 -1.16,1.4 -0.24,0.24 -0.44,0.52 -0.2,0.24 -0.44,0.52 0,0.36 -0.32,0.36 -0.2,0.2 -0.4,0.44 -0.16,0.2 -0.36,0.4 -0.56,0.56 -1.16,1.08 -0.56,0.52 -1.16,1.08 -0.12,0.08 -0.28,0.2 -0.12,0.08 -0.28,0.16 -0.12,0.04 -0.44,0.04 -0.08,0.24 -0.08,0.44 0,0.68 0.36,0.88 0.2,0.12 0.4,0 0.24,-0.12 0.44,-0.24 2.04,-1.04 3.84,-2.84 0.2,-0.2 0.32,-0.4 0.16,-0.2 0.32,-0.4 0.16,-0.16 0.28,-0.28 0.12,-0.12 0.28,-0.2 -0.08,0.36 -0.28,0.72 -0.16,0.32 -0.24,0.68 0.2,-0.2 0.32,-0.36 0.12,-0.2 0.32,-0.4 0.2,-0.16 0.28,-0.36 0.08,-0.2 0.36,-0.32 0.12,0.2 -0.04,0.4 -0.16,0.2 -0.08,0.44 0.16,-0.2 0.28,-0.36 0.16,-0.2 0.28,-0.36 0.24,0.16 0.24,0.28 0.04,0.12 -0.16,0.68 0.08,-0.16 0.2,-0.28 0.12,-0.16 0.24,-0.32 z m -2.76,-2.52 q 0.12,-0.16 0.28,-0.24 0.16,-0.12 0.16,-0.32 -0.36,0.28 -0.44,0.56 z m 1.52,-2.04 q -0.24,0.36 -0.52,0.72 -0.24,0.36 -0.48,0.72 0.44,-0.28 0.64,-0.64 0.24,-0.4 0.48,-0.76 -0.04,-0.04 -0.12,-0.04 z m -0.84,-0.16 q -0.2,0.24 -0.36,0.48 -0.12,0.24 -0.28,0.48 0.08,0 0.12,0.04 0.16,-0.24 0.28,-0.48 0.16,-0.24 0.36,-0.48 -0.04,0 -0.08,0 0,-0.04 -0.04,-0.04 z m -7,0.64 q 1.16,-1.4 2.2,-2.56 -0.08,-0.08 -0.08,-0.08 -0.64,0.32 -1.12,0.92 -0.44,0.6 -1,1.72 z m 1.12,0.28 q 0.32,-0.44 0.56,-0.84 0.28,-0.4 0.56,-0.84 -0.08,0 -0.08,-0.04 -0.72,0.72 -1.16,1.68 0.04,0.04 0.12,0.04 z m 2.28,-1.72 q -0.52,0.44 -0.84,1 -0.32,0.52 -0.52,1.08 0.32,-0.52 0.68,-1.04 0.36,-0.52 0.68,-1.04 z m 0.68,0 q -0.4,0.24 -0.88,0.84 -0.44,0.56 -0.84,1.28 -0.36,0.68 -0.68,1.44 -0.28,0.72 -0.32,1.28 0.44,-1.28 1.08,-2.48 0.64,-1.2 1.64,-2.36 z m -2.56,5.04 q -0.08,0.08 -0.08,0.2 0.04,0.12 0,0.32 0.28,-0.32 0.48,-0.56 0.2,-0.24 0.4,-0.48 0.8,-0.88 1.52,-1.76 0.76,-0.92 1.36,-1.92 0.36,-0.52 0.64,-1.28 0.12,-0.68 -0.56,-0.32 -0.16,0.08 -0.24,0.16 -0.92,0.64 -1.56,1.64 -0.68,0.96 -1.16,1.96 -0.48,1 -0.8,2.04 z m -0.28,1.68 q 0.08,-0.08 0.12,-0.12 0.08,-0.08 0.12,-0.16 0.64,-0.68 1.24,-1.32 0.64,-0.68 1.2,-1.36 0.48,-0.56 0.96,-1.16 0.48,-0.64 0.92,-1.24 0.12,-0.16 0.2,-0.32 0.12,-0.16 0.04,-0.36 -0.24,0.08 -0.32,0.24 -0.08,0.16 -0.2,0.32 -0.32,0.48 -0.64,0.96 -0.32,0.44 -0.68,0.88 -0.68,0.8 -1.36,1.56 -0.68,0.76 -1.36,1.56 -0.08,0.12 -0.2,0.24 -0.08,0.08 -0.04,0.28 z m 6.56,-4.48 q -0.04,0 -0.08,0 0,-0.04 -0.04,-0.04 0.28,-0.44 0.56,-0.88 0.28,-0.48 0.6,-0.96 0.04,0.04 0.08,0.04 -0.28,0.48 -0.56,0.96 -0.28,0.44 -0.56,0.88 z" />
    </g>
  </g>
</svg>
