<?xml version="1.0" encoding="UTF-8" standalone="no"?>
<!-- Generator: Adobe Illustrator 16.0.0, SVG Export Plug-In . SVG Version: 6.00 Build 0)  -->

<svg
   xmlns:dc="http://purl.org/dc/elements/1.1/"
   xmlns:cc="http://creativecommons.org/ns#"
   xmlns:rdf="http://www.w3.org/1999/02/22-rdf-syntax-ns#"
   xmlns:svg="http://www.w3.org/2000/svg"
   xmlns="http://www.w3.org/2000/svg"
   xmlns:xlink="http://www.w3.org/1999/xlink"
   xmlns:sodipodi="http://sodipodi.sourceforge.net/DTD/sodipodi-0.dtd"
   xmlns:inkscape="http://www.inkscape.org/namespaces/inkscape"
   version="1.1"
   id="Layer_1"
   x="0px"
   y="0px"
   width="32"
   height="32"
   viewBox="0 0 32 32"
   enable-background="new 0 0 512 512"
   xml:space="preserve"
   sodipodi:docname="active-search.svg"
   inkscape:version="0.92.4 (5da689c313, 2019-01-14)"><metadata
   id="metadata19"><rdf:RDF><cc:Work
       rdf:about=""><dc:format>image/svg+xml</dc:format><dc:type
         rdf:resource="http://purl.org/dc/dcmitype/StillImage" /><dc:title></dc:title></cc:Work></rdf:RDF></metadata><defs
   id="defs17"><linearGradient
     inkscape:collect="always"
     id="linearGradient830"><stop
       style="stop-color:#000000;stop-opacity:1;"
       offset="0"
       id="stop826" /><stop
       style="stop-color:#000000;stop-opacity:0;"
       offset="1"
       id="stop828" /></linearGradient><linearGradient
     inkscape:collect="always"
     xlink:href="#linearGradient830"
     id="linearGradient832"
     x1="49.99975"
     y1="256.00006"
     x2="462.0015"
     y2="256.00006"
     gradientUnits="userSpaceOnUse" /></defs><sodipodi:namedview
   pagecolor="#ffffff"
   bordercolor="#666666"
   borderopacity="1"
   objecttolerance="10"
   gridtolerance="10"
   guidetolerance="10"
   inkscape:pageopacity="0"
   inkscape:pageshadow="2"
   inkscape:window-width="3240"
   inkscape:window-height="2050"
   id="namedview15"
   showgrid="false"
   inkscape:zoom="16"
   inkscape:cx="29.960373"
   inkscape:cy="6.9317639"
   inkscape:window-x="-12"
   inkscape:window-y="-12"
   inkscape:window-maximized="1"
   inkscape:current-layer="g12" />


<g
   id="g12"
   transform="matrix(0.07766957,0,0,0.07766957,-3.8834591,-3.8832346)">
	<g
   id="g10"
   style="fill:#ff0088;fill-opacity:1">
		<path
   d="m 338.752,99.482 c -65.965,-65.974 -173.306,-65.974 -239.277,0 -65.967,65.964 -65.967,173.305 0,239.269 63.708,63.712 165.99,65.879 232.342,6.544 l 13.413,13.413 c -3.34,8.56 -1.59,18.623 5.311,25.528 l 70.782,70.782 c 9.305,9.31 24.397,9.305 33.696,0 9.31,-9.299 9.31,-24.387 0,-33.696 L 384.242,350.55 c -6.905,-6.899 -16.988,-8.65 -25.533,-5.311 l -13.413,-13.423 c 59.34,-66.351 57.167,-168.628 -6.544,-232.334 z M 119.698,318.539 c -54.819,-54.819 -54.819,-144.015 0,-198.834 54.819,-54.83 144.017,-54.819 198.836,0 54.819,54.819 54.819,144.02 0,198.839 -54.819,54.819 -144.017,54.814 -198.836,-0.005 z"
   id="path6"
   inkscape:connector-curvature="0"
   style="fill:#ff0088;fill-opacity:1" />
		<path
   d="m 153.1,151.877 c 23.944,-23.95 51.774,-41.331 81.037,-52.169 -33.153,-1.886 -68.66,11.014 -95.909,38.253 -27.624,27.626 -40.488,63.746 -38.142,97.302 10.755,-30.126 28.425,-58.803 53.014,-83.386 z"
   id="path8"
   inkscape:connector-curvature="0"
   style="fill:#ff0088;fill-opacity:1" />
	</g>
</g>
</svg>